<mxfile host="app.diagrams.net" modified="2024-05-09T16:57:55.913Z" agent="Mozilla/5.0 (Windows NT 10.0; Win64; x64; rv:125.0) Gecko/20100101 Firefox/125.0" etag="prNo_8Kkwyzh2SZnidD5" version="24.3.1" type="device">
  <diagram name="Page-1" id="j-AkeTJvbk_twapueU_q">
    <mxGraphModel dx="1296" dy="691" grid="1" gridSize="10" guides="1" tooltips="1" connect="1" arrows="1" fold="1" page="1" pageScale="1" pageWidth="827" pageHeight="1169" math="0" shadow="0">
      <root>
        <mxCell id="0" />
        <mxCell id="1" parent="0" />
        <mxCell id="gNZy8tcKWQFt4iCztj_j-1" value="" style="ellipse;whiteSpace=wrap;html=1;aspect=fixed;fillColor=#f8cecc;strokeColor=#b85450;" vertex="1" parent="1">
          <mxGeometry x="95.45454545454547" y="284.54545454545456" width="19.09090909090909" height="19.09090909090909" as="geometry" />
        </mxCell>
        <mxCell id="gNZy8tcKWQFt4iCztj_j-3" value="MinMax" style="text;html=1;align=center;verticalAlign=middle;whiteSpace=wrap;rounded=0;" vertex="1" parent="1">
          <mxGeometry x="120.90909090909092" y="230" width="38.18181818181818" height="20.454545454545457" as="geometry" />
        </mxCell>
        <mxCell id="gNZy8tcKWQFt4iCztj_j-4" value="" style="ellipse;whiteSpace=wrap;html=1;aspect=fixed;fillColor=#f8cecc;strokeColor=#b85450;" vertex="1" parent="1">
          <mxGeometry x="120.90909090909092" y="284.54545454545456" width="19.09090909090909" height="19.09090909090909" as="geometry" />
        </mxCell>
        <mxCell id="gNZy8tcKWQFt4iCztj_j-5" value="" style="ellipse;whiteSpace=wrap;html=1;aspect=fixed;fillColor=#f8cecc;strokeColor=#b85450;" vertex="1" parent="1">
          <mxGeometry x="70" y="284.54545454545456" width="19.09090909090909" height="19.09090909090909" as="geometry" />
        </mxCell>
        <mxCell id="gNZy8tcKWQFt4iCztj_j-6" value="" style="ellipse;whiteSpace=wrap;html=1;aspect=fixed;fillColor=#f8cecc;strokeColor=#b85450;" vertex="1" parent="1">
          <mxGeometry x="44.545454545454554" y="284.54545454545456" width="19.09090909090909" height="19.09090909090909" as="geometry" />
        </mxCell>
        <mxCell id="gNZy8tcKWQFt4iCztj_j-7" value="" style="ellipse;whiteSpace=wrap;html=1;aspect=fixed;fillColor=#f8cecc;strokeColor=#b85450;" vertex="1" parent="1">
          <mxGeometry x="146.36363636363637" y="284.54545454545456" width="19.09090909090909" height="19.09090909090909" as="geometry" />
        </mxCell>
        <mxCell id="gNZy8tcKWQFt4iCztj_j-8" value="" style="ellipse;whiteSpace=wrap;html=1;aspect=fixed;fillColor=#f8cecc;strokeColor=#b85450;" vertex="1" parent="1">
          <mxGeometry x="171.81818181818184" y="284.54545454545456" width="19.09090909090909" height="19.09090909090909" as="geometry" />
        </mxCell>
        <mxCell id="gNZy8tcKWQFt4iCztj_j-9" value="" style="ellipse;whiteSpace=wrap;html=1;aspect=fixed;fillColor=#f8cecc;strokeColor=#b85450;" vertex="1" parent="1">
          <mxGeometry x="197.27272727272728" y="284.54545454545456" width="19.09090909090909" height="19.09090909090909" as="geometry" />
        </mxCell>
        <mxCell id="gNZy8tcKWQFt4iCztj_j-10" value="" style="ellipse;whiteSpace=wrap;html=1;aspect=fixed;fillColor=#f8cecc;strokeColor=#b85450;" vertex="1" parent="1">
          <mxGeometry x="222.72727272727275" y="284.54545454545456" width="19.09090909090909" height="19.09090909090909" as="geometry" />
        </mxCell>
        <mxCell id="gNZy8tcKWQFt4iCztj_j-19" value="" style="endArrow=none;dashed=1;html=1;dashPattern=1 3;strokeWidth=2;rounded=0;entryX=0.5;entryY=1;entryDx=0;entryDy=0;exitX=0.5;exitY=0;exitDx=0;exitDy=0;" edge="1" parent="1" source="gNZy8tcKWQFt4iCztj_j-21" target="gNZy8tcKWQFt4iCztj_j-6">
          <mxGeometry width="50" height="50" relative="1" as="geometry">
            <mxPoint x="19.09090909090909" y="339.0909090909091" as="sourcePoint" />
            <mxPoint x="50.90909090909092" y="305" as="targetPoint" />
          </mxGeometry>
        </mxCell>
        <mxCell id="gNZy8tcKWQFt4iCztj_j-28" value="" style="group" vertex="1" connectable="0" parent="1">
          <mxGeometry x="44.55" y="345.90909090909093" width="31.81818181818182" height="6.818181818181818" as="geometry" />
        </mxCell>
        <mxCell id="gNZy8tcKWQFt4iCztj_j-20" value="" style="ellipse;whiteSpace=wrap;html=1;aspect=fixed;" vertex="1" parent="gNZy8tcKWQFt4iCztj_j-28">
          <mxGeometry x="8.21114369501466" width="3.079178885630499" height="3.079178885630499" as="geometry" />
        </mxCell>
        <mxCell id="gNZy8tcKWQFt4iCztj_j-21" value="" style="ellipse;whiteSpace=wrap;html=1;aspect=fixed;" vertex="1" parent="gNZy8tcKWQFt4iCztj_j-28">
          <mxGeometry x="12.316715542521996" width="3.079178885630499" height="3.079178885630499" as="geometry" />
        </mxCell>
        <mxCell id="gNZy8tcKWQFt4iCztj_j-22" value="" style="ellipse;whiteSpace=wrap;html=1;aspect=fixed;" vertex="1" parent="gNZy8tcKWQFt4iCztj_j-28">
          <mxGeometry x="4.10557184750733" width="3.079178885630499" height="3.079178885630499" as="geometry" />
        </mxCell>
        <mxCell id="gNZy8tcKWQFt4iCztj_j-23" value="" style="ellipse;whiteSpace=wrap;html=1;aspect=fixed;" vertex="1" parent="gNZy8tcKWQFt4iCztj_j-28">
          <mxGeometry width="3.079178885630499" height="3.079178885630499" as="geometry" />
        </mxCell>
        <mxCell id="gNZy8tcKWQFt4iCztj_j-24" value="" style="ellipse;whiteSpace=wrap;html=1;aspect=fixed;" vertex="1" parent="gNZy8tcKWQFt4iCztj_j-28">
          <mxGeometry x="16.42228739002932" width="3.079178885630499" height="3.079178885630499" as="geometry" />
        </mxCell>
        <mxCell id="gNZy8tcKWQFt4iCztj_j-25" value="" style="ellipse;whiteSpace=wrap;html=1;aspect=fixed;" vertex="1" parent="gNZy8tcKWQFt4iCztj_j-28">
          <mxGeometry x="20.52785923753666" width="3.079178885630499" height="3.079178885630499" as="geometry" />
        </mxCell>
        <mxCell id="gNZy8tcKWQFt4iCztj_j-26" value="" style="ellipse;whiteSpace=wrap;html=1;aspect=fixed;" vertex="1" parent="gNZy8tcKWQFt4iCztj_j-28">
          <mxGeometry x="24.63343108504399" width="3.079178885630499" height="3.079178885630499" as="geometry" />
        </mxCell>
        <mxCell id="gNZy8tcKWQFt4iCztj_j-27" value="" style="ellipse;whiteSpace=wrap;html=1;aspect=fixed;" vertex="1" parent="gNZy8tcKWQFt4iCztj_j-28">
          <mxGeometry x="28.739002932551323" width="3.079178885630499" height="3.079178885630499" as="geometry" />
        </mxCell>
        <mxCell id="gNZy8tcKWQFt4iCztj_j-32" value="" style="group" vertex="1" connectable="0" parent="1">
          <mxGeometry x="70.00181818181818" y="339.99909090909085" width="31.81818181818182" height="6.818181818181818" as="geometry" />
        </mxCell>
        <mxCell id="gNZy8tcKWQFt4iCztj_j-33" value="" style="ellipse;whiteSpace=wrap;html=1;aspect=fixed;" vertex="1" parent="gNZy8tcKWQFt4iCztj_j-32">
          <mxGeometry x="8.21114369501466" width="3.079178885630499" height="3.079178885630499" as="geometry" />
        </mxCell>
        <mxCell id="gNZy8tcKWQFt4iCztj_j-34" value="" style="ellipse;whiteSpace=wrap;html=1;aspect=fixed;" vertex="1" parent="gNZy8tcKWQFt4iCztj_j-32">
          <mxGeometry x="12.316715542521996" width="3.079178885630499" height="3.079178885630499" as="geometry" />
        </mxCell>
        <mxCell id="gNZy8tcKWQFt4iCztj_j-35" value="" style="ellipse;whiteSpace=wrap;html=1;aspect=fixed;" vertex="1" parent="gNZy8tcKWQFt4iCztj_j-32">
          <mxGeometry x="4.10557184750733" width="3.079178885630499" height="3.079178885630499" as="geometry" />
        </mxCell>
        <mxCell id="gNZy8tcKWQFt4iCztj_j-36" value="" style="ellipse;whiteSpace=wrap;html=1;aspect=fixed;" vertex="1" parent="gNZy8tcKWQFt4iCztj_j-32">
          <mxGeometry width="3.079178885630499" height="3.079178885630499" as="geometry" />
        </mxCell>
        <mxCell id="gNZy8tcKWQFt4iCztj_j-37" value="" style="ellipse;whiteSpace=wrap;html=1;aspect=fixed;" vertex="1" parent="gNZy8tcKWQFt4iCztj_j-32">
          <mxGeometry x="16.42228739002932" width="3.079178885630499" height="3.079178885630499" as="geometry" />
        </mxCell>
        <mxCell id="gNZy8tcKWQFt4iCztj_j-38" value="" style="ellipse;whiteSpace=wrap;html=1;aspect=fixed;" vertex="1" parent="gNZy8tcKWQFt4iCztj_j-32">
          <mxGeometry x="20.52785923753666" width="3.079178885630499" height="3.079178885630499" as="geometry" />
        </mxCell>
        <mxCell id="gNZy8tcKWQFt4iCztj_j-39" value="" style="ellipse;whiteSpace=wrap;html=1;aspect=fixed;" vertex="1" parent="gNZy8tcKWQFt4iCztj_j-32">
          <mxGeometry x="24.63343108504399" width="3.079178885630499" height="3.079178885630499" as="geometry" />
        </mxCell>
        <mxCell id="gNZy8tcKWQFt4iCztj_j-40" value="" style="ellipse;whiteSpace=wrap;html=1;aspect=fixed;" vertex="1" parent="gNZy8tcKWQFt4iCztj_j-32">
          <mxGeometry x="28.739002932551323" width="3.079178885630499" height="3.079178885630499" as="geometry" />
        </mxCell>
        <mxCell id="gNZy8tcKWQFt4iCztj_j-41" value="" style="group" vertex="1" connectable="0" parent="1">
          <mxGeometry x="95.45363636363636" y="345.9090909090909" width="31.81818181818182" height="6.818181818181818" as="geometry" />
        </mxCell>
        <mxCell id="gNZy8tcKWQFt4iCztj_j-42" value="" style="ellipse;whiteSpace=wrap;html=1;aspect=fixed;" vertex="1" parent="gNZy8tcKWQFt4iCztj_j-41">
          <mxGeometry x="8.21114369501466" width="3.079178885630499" height="3.079178885630499" as="geometry" />
        </mxCell>
        <mxCell id="gNZy8tcKWQFt4iCztj_j-43" value="" style="ellipse;whiteSpace=wrap;html=1;aspect=fixed;" vertex="1" parent="gNZy8tcKWQFt4iCztj_j-41">
          <mxGeometry x="12.316715542521996" width="3.079178885630499" height="3.079178885630499" as="geometry" />
        </mxCell>
        <mxCell id="gNZy8tcKWQFt4iCztj_j-44" value="" style="ellipse;whiteSpace=wrap;html=1;aspect=fixed;" vertex="1" parent="gNZy8tcKWQFt4iCztj_j-41">
          <mxGeometry x="4.10557184750733" width="3.079178885630499" height="3.079178885630499" as="geometry" />
        </mxCell>
        <mxCell id="gNZy8tcKWQFt4iCztj_j-45" value="" style="ellipse;whiteSpace=wrap;html=1;aspect=fixed;" vertex="1" parent="gNZy8tcKWQFt4iCztj_j-41">
          <mxGeometry width="3.079178885630499" height="3.079178885630499" as="geometry" />
        </mxCell>
        <mxCell id="gNZy8tcKWQFt4iCztj_j-46" value="" style="ellipse;whiteSpace=wrap;html=1;aspect=fixed;" vertex="1" parent="gNZy8tcKWQFt4iCztj_j-41">
          <mxGeometry x="16.42228739002932" width="3.079178885630499" height="3.079178885630499" as="geometry" />
        </mxCell>
        <mxCell id="gNZy8tcKWQFt4iCztj_j-47" value="" style="ellipse;whiteSpace=wrap;html=1;aspect=fixed;" vertex="1" parent="gNZy8tcKWQFt4iCztj_j-41">
          <mxGeometry x="20.52785923753666" width="3.079178885630499" height="3.079178885630499" as="geometry" />
        </mxCell>
        <mxCell id="gNZy8tcKWQFt4iCztj_j-48" value="" style="ellipse;whiteSpace=wrap;html=1;aspect=fixed;" vertex="1" parent="gNZy8tcKWQFt4iCztj_j-41">
          <mxGeometry x="24.63343108504399" width="3.079178885630499" height="3.079178885630499" as="geometry" />
        </mxCell>
        <mxCell id="gNZy8tcKWQFt4iCztj_j-49" value="" style="ellipse;whiteSpace=wrap;html=1;aspect=fixed;" vertex="1" parent="gNZy8tcKWQFt4iCztj_j-41">
          <mxGeometry x="28.739002932551323" width="3.079178885630499" height="3.079178885630499" as="geometry" />
        </mxCell>
        <mxCell id="gNZy8tcKWQFt4iCztj_j-50" value="" style="group" vertex="1" connectable="0" parent="1">
          <mxGeometry x="120.90545454545456" y="339.99909090909085" width="31.81818181818182" height="6.818181818181818" as="geometry" />
        </mxCell>
        <mxCell id="gNZy8tcKWQFt4iCztj_j-51" value="" style="ellipse;whiteSpace=wrap;html=1;aspect=fixed;" vertex="1" parent="gNZy8tcKWQFt4iCztj_j-50">
          <mxGeometry x="8.21114369501466" width="3.079178885630499" height="3.079178885630499" as="geometry" />
        </mxCell>
        <mxCell id="gNZy8tcKWQFt4iCztj_j-52" value="" style="ellipse;whiteSpace=wrap;html=1;aspect=fixed;" vertex="1" parent="gNZy8tcKWQFt4iCztj_j-50">
          <mxGeometry x="12.316715542521996" width="3.079178885630499" height="3.079178885630499" as="geometry" />
        </mxCell>
        <mxCell id="gNZy8tcKWQFt4iCztj_j-53" value="" style="ellipse;whiteSpace=wrap;html=1;aspect=fixed;" vertex="1" parent="gNZy8tcKWQFt4iCztj_j-50">
          <mxGeometry x="4.10557184750733" width="3.079178885630499" height="3.079178885630499" as="geometry" />
        </mxCell>
        <mxCell id="gNZy8tcKWQFt4iCztj_j-54" value="" style="ellipse;whiteSpace=wrap;html=1;aspect=fixed;" vertex="1" parent="gNZy8tcKWQFt4iCztj_j-50">
          <mxGeometry width="3.079178885630499" height="3.079178885630499" as="geometry" />
        </mxCell>
        <mxCell id="gNZy8tcKWQFt4iCztj_j-55" value="" style="ellipse;whiteSpace=wrap;html=1;aspect=fixed;" vertex="1" parent="gNZy8tcKWQFt4iCztj_j-50">
          <mxGeometry x="16.42228739002932" width="3.079178885630499" height="3.079178885630499" as="geometry" />
        </mxCell>
        <mxCell id="gNZy8tcKWQFt4iCztj_j-56" value="" style="ellipse;whiteSpace=wrap;html=1;aspect=fixed;" vertex="1" parent="gNZy8tcKWQFt4iCztj_j-50">
          <mxGeometry x="20.52785923753666" width="3.079178885630499" height="3.079178885630499" as="geometry" />
        </mxCell>
        <mxCell id="gNZy8tcKWQFt4iCztj_j-57" value="" style="ellipse;whiteSpace=wrap;html=1;aspect=fixed;" vertex="1" parent="gNZy8tcKWQFt4iCztj_j-50">
          <mxGeometry x="24.63343108504399" width="3.079178885630499" height="3.079178885630499" as="geometry" />
        </mxCell>
        <mxCell id="gNZy8tcKWQFt4iCztj_j-58" value="" style="ellipse;whiteSpace=wrap;html=1;aspect=fixed;" vertex="1" parent="gNZy8tcKWQFt4iCztj_j-50">
          <mxGeometry x="28.739002932551323" width="3.079178885630499" height="3.079178885630499" as="geometry" />
        </mxCell>
        <mxCell id="gNZy8tcKWQFt4iCztj_j-59" value="" style="group;container=0;" vertex="1" connectable="0" parent="1">
          <mxGeometry x="50.91" y="369.99545454545455" width="197.27272727272728" height="20.454545454545457" as="geometry" />
        </mxCell>
        <mxCell id="gNZy8tcKWQFt4iCztj_j-61" value="" style="group" vertex="1" connectable="0" parent="1">
          <mxGeometry x="165.45818181818183" y="339.99909090909085" width="31.81818181818182" height="6.818181818181818" as="geometry" />
        </mxCell>
        <mxCell id="gNZy8tcKWQFt4iCztj_j-62" value="" style="ellipse;whiteSpace=wrap;html=1;aspect=fixed;" vertex="1" parent="gNZy8tcKWQFt4iCztj_j-61">
          <mxGeometry x="8.21114369501466" width="3.079178885630499" height="3.079178885630499" as="geometry" />
        </mxCell>
        <mxCell id="gNZy8tcKWQFt4iCztj_j-63" value="" style="ellipse;whiteSpace=wrap;html=1;aspect=fixed;" vertex="1" parent="gNZy8tcKWQFt4iCztj_j-61">
          <mxGeometry x="12.316715542521996" width="3.079178885630499" height="3.079178885630499" as="geometry" />
        </mxCell>
        <mxCell id="gNZy8tcKWQFt4iCztj_j-64" value="" style="ellipse;whiteSpace=wrap;html=1;aspect=fixed;" vertex="1" parent="gNZy8tcKWQFt4iCztj_j-61">
          <mxGeometry x="4.10557184750733" width="3.079178885630499" height="3.079178885630499" as="geometry" />
        </mxCell>
        <mxCell id="gNZy8tcKWQFt4iCztj_j-65" value="" style="ellipse;whiteSpace=wrap;html=1;aspect=fixed;" vertex="1" parent="gNZy8tcKWQFt4iCztj_j-61">
          <mxGeometry width="3.079178885630499" height="3.079178885630499" as="geometry" />
        </mxCell>
        <mxCell id="gNZy8tcKWQFt4iCztj_j-66" value="" style="ellipse;whiteSpace=wrap;html=1;aspect=fixed;" vertex="1" parent="gNZy8tcKWQFt4iCztj_j-61">
          <mxGeometry x="16.42228739002932" width="3.079178885630499" height="3.079178885630499" as="geometry" />
        </mxCell>
        <mxCell id="gNZy8tcKWQFt4iCztj_j-67" value="" style="ellipse;whiteSpace=wrap;html=1;aspect=fixed;" vertex="1" parent="gNZy8tcKWQFt4iCztj_j-61">
          <mxGeometry x="20.52785923753666" width="3.079178885630499" height="3.079178885630499" as="geometry" />
        </mxCell>
        <mxCell id="gNZy8tcKWQFt4iCztj_j-68" value="" style="ellipse;whiteSpace=wrap;html=1;aspect=fixed;" vertex="1" parent="gNZy8tcKWQFt4iCztj_j-61">
          <mxGeometry x="24.63343108504399" width="3.079178885630499" height="3.079178885630499" as="geometry" />
        </mxCell>
        <mxCell id="gNZy8tcKWQFt4iCztj_j-69" value="" style="ellipse;whiteSpace=wrap;html=1;aspect=fixed;" vertex="1" parent="gNZy8tcKWQFt4iCztj_j-61">
          <mxGeometry x="28.739002932551323" width="3.079178885630499" height="3.079178885630499" as="geometry" />
        </mxCell>
        <mxCell id="gNZy8tcKWQFt4iCztj_j-70" value="" style="group" vertex="1" connectable="0" parent="1">
          <mxGeometry x="190.91" y="345.9090909090909" width="31.81818181818182" height="6.818181818181818" as="geometry" />
        </mxCell>
        <mxCell id="gNZy8tcKWQFt4iCztj_j-71" value="" style="ellipse;whiteSpace=wrap;html=1;aspect=fixed;" vertex="1" parent="gNZy8tcKWQFt4iCztj_j-70">
          <mxGeometry x="8.21114369501466" width="3.079178885630499" height="3.079178885630499" as="geometry" />
        </mxCell>
        <mxCell id="gNZy8tcKWQFt4iCztj_j-72" value="" style="ellipse;whiteSpace=wrap;html=1;aspect=fixed;" vertex="1" parent="gNZy8tcKWQFt4iCztj_j-70">
          <mxGeometry x="12.316715542521996" width="3.079178885630499" height="3.079178885630499" as="geometry" />
        </mxCell>
        <mxCell id="gNZy8tcKWQFt4iCztj_j-73" value="" style="ellipse;whiteSpace=wrap;html=1;aspect=fixed;" vertex="1" parent="gNZy8tcKWQFt4iCztj_j-70">
          <mxGeometry x="4.10557184750733" width="3.079178885630499" height="3.079178885630499" as="geometry" />
        </mxCell>
        <mxCell id="gNZy8tcKWQFt4iCztj_j-74" value="" style="ellipse;whiteSpace=wrap;html=1;aspect=fixed;" vertex="1" parent="gNZy8tcKWQFt4iCztj_j-70">
          <mxGeometry width="3.079178885630499" height="3.079178885630499" as="geometry" />
        </mxCell>
        <mxCell id="gNZy8tcKWQFt4iCztj_j-75" value="" style="ellipse;whiteSpace=wrap;html=1;aspect=fixed;" vertex="1" parent="gNZy8tcKWQFt4iCztj_j-70">
          <mxGeometry x="16.42228739002932" width="3.079178885630499" height="3.079178885630499" as="geometry" />
        </mxCell>
        <mxCell id="gNZy8tcKWQFt4iCztj_j-76" value="" style="ellipse;whiteSpace=wrap;html=1;aspect=fixed;" vertex="1" parent="gNZy8tcKWQFt4iCztj_j-70">
          <mxGeometry x="20.52785923753666" width="3.079178885630499" height="3.079178885630499" as="geometry" />
        </mxCell>
        <mxCell id="gNZy8tcKWQFt4iCztj_j-77" value="" style="ellipse;whiteSpace=wrap;html=1;aspect=fixed;" vertex="1" parent="gNZy8tcKWQFt4iCztj_j-70">
          <mxGeometry x="24.63343108504399" width="3.079178885630499" height="3.079178885630499" as="geometry" />
        </mxCell>
        <mxCell id="gNZy8tcKWQFt4iCztj_j-78" value="" style="ellipse;whiteSpace=wrap;html=1;aspect=fixed;" vertex="1" parent="gNZy8tcKWQFt4iCztj_j-70">
          <mxGeometry x="28.739002932551323" width="3.079178885630499" height="3.079178885630499" as="geometry" />
        </mxCell>
        <mxCell id="gNZy8tcKWQFt4iCztj_j-79" value="" style="group" vertex="1" connectable="0" parent="1">
          <mxGeometry x="216.3618181818182" y="339.99909090909085" width="31.81818181818182" height="6.818181818181818" as="geometry" />
        </mxCell>
        <mxCell id="gNZy8tcKWQFt4iCztj_j-80" value="" style="ellipse;whiteSpace=wrap;html=1;aspect=fixed;" vertex="1" parent="gNZy8tcKWQFt4iCztj_j-79">
          <mxGeometry x="8.21114369501466" width="3.079178885630499" height="3.079178885630499" as="geometry" />
        </mxCell>
        <mxCell id="gNZy8tcKWQFt4iCztj_j-81" value="" style="ellipse;whiteSpace=wrap;html=1;aspect=fixed;" vertex="1" parent="gNZy8tcKWQFt4iCztj_j-79">
          <mxGeometry x="12.316715542521996" width="3.079178885630499" height="3.079178885630499" as="geometry" />
        </mxCell>
        <mxCell id="gNZy8tcKWQFt4iCztj_j-82" value="" style="ellipse;whiteSpace=wrap;html=1;aspect=fixed;" vertex="1" parent="gNZy8tcKWQFt4iCztj_j-79">
          <mxGeometry x="4.10557184750733" width="3.079178885630499" height="3.079178885630499" as="geometry" />
        </mxCell>
        <mxCell id="gNZy8tcKWQFt4iCztj_j-83" value="" style="ellipse;whiteSpace=wrap;html=1;aspect=fixed;" vertex="1" parent="gNZy8tcKWQFt4iCztj_j-79">
          <mxGeometry width="3.079178885630499" height="3.079178885630499" as="geometry" />
        </mxCell>
        <mxCell id="gNZy8tcKWQFt4iCztj_j-84" value="" style="ellipse;whiteSpace=wrap;html=1;aspect=fixed;" vertex="1" parent="gNZy8tcKWQFt4iCztj_j-79">
          <mxGeometry x="16.42228739002932" width="3.079178885630499" height="3.079178885630499" as="geometry" />
        </mxCell>
        <mxCell id="gNZy8tcKWQFt4iCztj_j-85" value="" style="ellipse;whiteSpace=wrap;html=1;aspect=fixed;" vertex="1" parent="gNZy8tcKWQFt4iCztj_j-79">
          <mxGeometry x="20.52785923753666" width="3.079178885630499" height="3.079178885630499" as="geometry" />
        </mxCell>
        <mxCell id="gNZy8tcKWQFt4iCztj_j-86" value="" style="ellipse;whiteSpace=wrap;html=1;aspect=fixed;" vertex="1" parent="gNZy8tcKWQFt4iCztj_j-79">
          <mxGeometry x="24.63343108504399" width="3.079178885630499" height="3.079178885630499" as="geometry" />
        </mxCell>
        <mxCell id="gNZy8tcKWQFt4iCztj_j-87" value="" style="ellipse;whiteSpace=wrap;html=1;aspect=fixed;" vertex="1" parent="gNZy8tcKWQFt4iCztj_j-79">
          <mxGeometry x="28.739002932551323" width="3.079178885630499" height="3.079178885630499" as="geometry" />
        </mxCell>
        <mxCell id="gNZy8tcKWQFt4iCztj_j-88" value="" style="endArrow=classic;html=1;rounded=0;exitX=0.5;exitY=1;exitDx=0;exitDy=0;entryX=0.5;entryY=0;entryDx=0;entryDy=0;" edge="1" parent="1" source="gNZy8tcKWQFt4iCztj_j-3" target="gNZy8tcKWQFt4iCztj_j-7">
          <mxGeometry width="50" height="50" relative="1" as="geometry">
            <mxPoint x="82.72727272727273" y="339.0909090909091" as="sourcePoint" />
            <mxPoint x="114.54545454545456" y="305" as="targetPoint" />
          </mxGeometry>
        </mxCell>
        <mxCell id="gNZy8tcKWQFt4iCztj_j-90" value="" style="endArrow=none;dashed=1;html=1;dashPattern=1 3;strokeWidth=2;rounded=0;entryX=0.5;entryY=1;entryDx=0;entryDy=0;exitX=0.5;exitY=0;exitDx=0;exitDy=0;" edge="1" parent="1" source="gNZy8tcKWQFt4iCztj_j-37" target="gNZy8tcKWQFt4iCztj_j-5">
          <mxGeometry width="50" height="50" relative="1" as="geometry">
            <mxPoint x="20.363636363636367" y="352.72727272727275" as="sourcePoint" />
            <mxPoint x="53.45454545454546" y="309.0909090909091" as="targetPoint" />
          </mxGeometry>
        </mxCell>
        <mxCell id="gNZy8tcKWQFt4iCztj_j-11" value="" style="ellipse;whiteSpace=wrap;html=1;aspect=fixed;fillColor=#f8cecc;strokeColor=#b85450;" vertex="1" parent="1">
          <mxGeometry x="101.81909090909092" y="369.99545454545455" width="19.09090909090909" height="19.09090909090909" as="geometry" />
        </mxCell>
        <mxCell id="gNZy8tcKWQFt4iCztj_j-12" value="" style="ellipse;whiteSpace=wrap;html=1;aspect=fixed;fillColor=#f8cecc;strokeColor=#b85450;" vertex="1" parent="1">
          <mxGeometry x="127.27363636363637" y="369.99545454545455" width="19.09090909090909" height="19.09090909090909" as="geometry" />
        </mxCell>
        <mxCell id="gNZy8tcKWQFt4iCztj_j-13" value="" style="ellipse;whiteSpace=wrap;html=1;aspect=fixed;fillColor=#f8cecc;strokeColor=#b85450;" vertex="1" parent="1">
          <mxGeometry x="76.36454545454546" y="369.99545454545455" width="19.09090909090909" height="19.09090909090909" as="geometry" />
        </mxCell>
        <mxCell id="gNZy8tcKWQFt4iCztj_j-14" value="" style="ellipse;whiteSpace=wrap;html=1;aspect=fixed;fillColor=#f8cecc;strokeColor=#b85450;" vertex="1" parent="1">
          <mxGeometry x="50.91" y="369.99545454545455" width="19.09090909090909" height="19.09090909090909" as="geometry" />
        </mxCell>
        <mxCell id="gNZy8tcKWQFt4iCztj_j-15" value="" style="ellipse;whiteSpace=wrap;html=1;aspect=fixed;fillColor=#f8cecc;strokeColor=#b85450;" vertex="1" parent="1">
          <mxGeometry x="152.72818181818184" y="369.99545454545455" width="19.09090909090909" height="19.09090909090909" as="geometry" />
        </mxCell>
        <mxCell id="gNZy8tcKWQFt4iCztj_j-16" value="" style="ellipse;whiteSpace=wrap;html=1;aspect=fixed;fillColor=#f8cecc;strokeColor=#b85450;" vertex="1" parent="1">
          <mxGeometry x="178.18272727272728" y="369.99545454545455" width="19.09090909090909" height="19.09090909090909" as="geometry" />
        </mxCell>
        <mxCell id="gNZy8tcKWQFt4iCztj_j-17" value="" style="ellipse;whiteSpace=wrap;html=1;aspect=fixed;fillColor=#f8cecc;strokeColor=#b85450;" vertex="1" parent="1">
          <mxGeometry x="203.63727272727274" y="369.99545454545455" width="19.09090909090909" height="19.09090909090909" as="geometry" />
        </mxCell>
        <mxCell id="gNZy8tcKWQFt4iCztj_j-18" value="" style="ellipse;whiteSpace=wrap;html=1;aspect=fixed;fillColor=#f8cecc;strokeColor=#b85450;" vertex="1" parent="1">
          <mxGeometry x="229.09181818181818" y="369.99545454545455" width="19.09090909090909" height="19.09090909090909" as="geometry" />
        </mxCell>
        <mxCell id="gNZy8tcKWQFt4iCztj_j-91" value="" style="endArrow=none;dashed=1;html=1;dashPattern=1 3;strokeWidth=2;rounded=0;entryX=0.5;entryY=1;entryDx=0;entryDy=0;exitX=0.5;exitY=0;exitDx=0;exitDy=0;" edge="1" parent="1" source="gNZy8tcKWQFt4iCztj_j-46" target="gNZy8tcKWQFt4iCztj_j-1">
          <mxGeometry width="50" height="50" relative="1" as="geometry">
            <mxPoint x="62.36363636363637" y="352.72727272727275" as="sourcePoint" />
            <mxPoint x="85.90909090909092" y="311.8181818181818" as="targetPoint" />
          </mxGeometry>
        </mxCell>
        <mxCell id="gNZy8tcKWQFt4iCztj_j-92" value="" style="endArrow=none;dashed=1;html=1;dashPattern=1 3;strokeWidth=2;rounded=0;entryX=0.5;entryY=1;entryDx=0;entryDy=0;exitX=0.5;exitY=0;exitDx=0;exitDy=0;" edge="1" parent="1" source="gNZy8tcKWQFt4iCztj_j-52" target="gNZy8tcKWQFt4iCztj_j-4">
          <mxGeometry width="50" height="50" relative="1" as="geometry">
            <mxPoint x="68.72727272727273" y="359.54545454545456" as="sourcePoint" />
            <mxPoint x="92.27272727272728" y="318.6363636363636" as="targetPoint" />
          </mxGeometry>
        </mxCell>
        <mxCell id="gNZy8tcKWQFt4iCztj_j-93" value="" style="endArrow=none;dashed=1;html=1;dashPattern=1 3;strokeWidth=2;rounded=0;entryX=0.5;entryY=1;entryDx=0;entryDy=0;exitX=0.5;exitY=0;exitDx=0;exitDy=0;" edge="1" parent="1" source="gNZy8tcKWQFt4iCztj_j-66" target="gNZy8tcKWQFt4iCztj_j-8">
          <mxGeometry width="50" height="50" relative="1" as="geometry">
            <mxPoint x="75.0909090909091" y="366.3636363636364" as="sourcePoint" />
            <mxPoint x="98.63636363636364" y="325.45454545454544" as="targetPoint" />
          </mxGeometry>
        </mxCell>
        <mxCell id="gNZy8tcKWQFt4iCztj_j-94" value="" style="endArrow=none;dashed=1;html=1;dashPattern=1 3;strokeWidth=2;rounded=0;entryX=0.5;entryY=1;entryDx=0;entryDy=0;exitX=0.5;exitY=0;exitDx=0;exitDy=0;" edge="1" parent="1" source="gNZy8tcKWQFt4iCztj_j-75" target="gNZy8tcKWQFt4iCztj_j-9">
          <mxGeometry width="50" height="50" relative="1" as="geometry">
            <mxPoint x="196" y="352.72727272727275" as="sourcePoint" />
            <mxPoint x="187.72727272727275" y="311.8181818181818" as="targetPoint" />
          </mxGeometry>
        </mxCell>
        <mxCell id="gNZy8tcKWQFt4iCztj_j-95" value="" style="endArrow=none;dashed=1;html=1;dashPattern=1 3;strokeWidth=2;rounded=0;entryX=0.5;entryY=1;entryDx=0;entryDy=0;exitX=0.5;exitY=0;exitDx=0;exitDy=0;" edge="1" parent="1" source="gNZy8tcKWQFt4iCztj_j-81" target="gNZy8tcKWQFt4iCztj_j-10">
          <mxGeometry width="50" height="50" relative="1" as="geometry">
            <mxPoint x="202.3636363636364" y="359.54545454545456" as="sourcePoint" />
            <mxPoint x="194.09090909090912" y="318.6363636363636" as="targetPoint" />
          </mxGeometry>
        </mxCell>
        <mxCell id="gNZy8tcKWQFt4iCztj_j-387" value="" style="group" vertex="1" connectable="0" parent="1">
          <mxGeometry x="260" y="228.64" width="222.72000000000008" height="160.45" as="geometry" />
        </mxCell>
        <mxCell id="gNZy8tcKWQFt4iCztj_j-98" value="" style="ellipse;whiteSpace=wrap;html=1;aspect=fixed;fillColor=#f8cecc;strokeColor=#b85450;" vertex="1" parent="gNZy8tcKWQFt4iCztj_j-387">
          <mxGeometry x="69.99454545454552" y="54.54545454545456" width="19.09090909090909" height="19.09090909090909" as="geometry" />
        </mxCell>
        <mxCell id="gNZy8tcKWQFt4iCztj_j-99" value="Random" style="text;html=1;align=center;verticalAlign=middle;whiteSpace=wrap;rounded=0;" vertex="1" parent="gNZy8tcKWQFt4iCztj_j-387">
          <mxGeometry x="95.44909090909096" width="38.18181818181818" height="20.454545454545457" as="geometry" />
        </mxCell>
        <mxCell id="gNZy8tcKWQFt4iCztj_j-100" value="" style="ellipse;whiteSpace=wrap;html=1;aspect=fixed;" vertex="1" parent="gNZy8tcKWQFt4iCztj_j-387">
          <mxGeometry x="95.44909090909096" y="54.54545454545456" width="19.09090909090909" height="19.09090909090909" as="geometry" />
        </mxCell>
        <mxCell id="gNZy8tcKWQFt4iCztj_j-101" value="" style="ellipse;whiteSpace=wrap;html=1;aspect=fixed;" vertex="1" parent="gNZy8tcKWQFt4iCztj_j-387">
          <mxGeometry x="44.54000000000002" y="54.54545454545456" width="19.09090909090909" height="19.09090909090909" as="geometry" />
        </mxCell>
        <mxCell id="gNZy8tcKWQFt4iCztj_j-102" value="" style="ellipse;whiteSpace=wrap;html=1;aspect=fixed;" vertex="1" parent="gNZy8tcKWQFt4iCztj_j-387">
          <mxGeometry x="19.08545454545458" y="54.54545454545456" width="19.09090909090909" height="19.09090909090909" as="geometry" />
        </mxCell>
        <mxCell id="gNZy8tcKWQFt4iCztj_j-103" value="" style="ellipse;whiteSpace=wrap;html=1;aspect=fixed;" vertex="1" parent="gNZy8tcKWQFt4iCztj_j-387">
          <mxGeometry x="120.9036363636364" y="54.54545454545456" width="19.09090909090909" height="19.09090909090909" as="geometry" />
        </mxCell>
        <mxCell id="gNZy8tcKWQFt4iCztj_j-104" value="" style="ellipse;whiteSpace=wrap;html=1;aspect=fixed;" vertex="1" parent="gNZy8tcKWQFt4iCztj_j-387">
          <mxGeometry x="146.3581818181819" y="54.54545454545456" width="19.09090909090909" height="19.09090909090909" as="geometry" />
        </mxCell>
        <mxCell id="gNZy8tcKWQFt4iCztj_j-105" value="" style="ellipse;whiteSpace=wrap;html=1;aspect=fixed;" vertex="1" parent="gNZy8tcKWQFt4iCztj_j-387">
          <mxGeometry x="171.81272727272727" y="54.54545454545456" width="19.09090909090909" height="19.09090909090909" as="geometry" />
        </mxCell>
        <mxCell id="gNZy8tcKWQFt4iCztj_j-106" value="" style="ellipse;whiteSpace=wrap;html=1;aspect=fixed;" vertex="1" parent="gNZy8tcKWQFt4iCztj_j-387">
          <mxGeometry x="197.26727272727277" y="54.54545454545456" width="19.09090909090909" height="19.09090909090909" as="geometry" />
        </mxCell>
        <mxCell id="gNZy8tcKWQFt4iCztj_j-107" value="" style="endArrow=none;dashed=1;html=1;dashPattern=1 3;strokeWidth=2;rounded=0;entryX=0.5;entryY=1;entryDx=0;entryDy=0;exitX=0.5;exitY=0;exitDx=0;exitDy=0;" edge="1" parent="gNZy8tcKWQFt4iCztj_j-387" source="gNZy8tcKWQFt4iCztj_j-110" target="gNZy8tcKWQFt4iCztj_j-102">
          <mxGeometry width="50" height="50" relative="1" as="geometry">
            <mxPoint x="-6.3690909090909145" y="109.09090909090912" as="sourcePoint" />
            <mxPoint x="25.449090909090955" y="75" as="targetPoint" />
          </mxGeometry>
        </mxCell>
        <mxCell id="gNZy8tcKWQFt4iCztj_j-108" value="" style="group" vertex="1" connectable="0" parent="gNZy8tcKWQFt4iCztj_j-387">
          <mxGeometry x="12.720000000000027" y="115.90909090909088" width="31.81818181818182" height="6.818181818181818" as="geometry" />
        </mxCell>
        <mxCell id="gNZy8tcKWQFt4iCztj_j-109" value="" style="ellipse;whiteSpace=wrap;html=1;aspect=fixed;" vertex="1" parent="gNZy8tcKWQFt4iCztj_j-108">
          <mxGeometry x="8.21114369501466" width="3.079178885630499" height="3.079178885630499" as="geometry" />
        </mxCell>
        <mxCell id="gNZy8tcKWQFt4iCztj_j-110" value="" style="ellipse;whiteSpace=wrap;html=1;aspect=fixed;" vertex="1" parent="gNZy8tcKWQFt4iCztj_j-108">
          <mxGeometry x="12.316715542521996" width="3.079178885630499" height="3.079178885630499" as="geometry" />
        </mxCell>
        <mxCell id="gNZy8tcKWQFt4iCztj_j-111" value="" style="ellipse;whiteSpace=wrap;html=1;aspect=fixed;" vertex="1" parent="gNZy8tcKWQFt4iCztj_j-108">
          <mxGeometry x="4.10557184750733" width="3.079178885630499" height="3.079178885630499" as="geometry" />
        </mxCell>
        <mxCell id="gNZy8tcKWQFt4iCztj_j-112" value="" style="ellipse;whiteSpace=wrap;html=1;aspect=fixed;" vertex="1" parent="gNZy8tcKWQFt4iCztj_j-108">
          <mxGeometry width="3.079178885630499" height="3.079178885630499" as="geometry" />
        </mxCell>
        <mxCell id="gNZy8tcKWQFt4iCztj_j-113" value="" style="ellipse;whiteSpace=wrap;html=1;aspect=fixed;" vertex="1" parent="gNZy8tcKWQFt4iCztj_j-108">
          <mxGeometry x="16.42228739002932" width="3.079178885630499" height="3.079178885630499" as="geometry" />
        </mxCell>
        <mxCell id="gNZy8tcKWQFt4iCztj_j-114" value="" style="ellipse;whiteSpace=wrap;html=1;aspect=fixed;" vertex="1" parent="gNZy8tcKWQFt4iCztj_j-108">
          <mxGeometry x="20.52785923753666" width="3.079178885630499" height="3.079178885630499" as="geometry" />
        </mxCell>
        <mxCell id="gNZy8tcKWQFt4iCztj_j-115" value="" style="ellipse;whiteSpace=wrap;html=1;aspect=fixed;" vertex="1" parent="gNZy8tcKWQFt4iCztj_j-108">
          <mxGeometry x="24.63343108504399" width="3.079178885630499" height="3.079178885630499" as="geometry" />
        </mxCell>
        <mxCell id="gNZy8tcKWQFt4iCztj_j-116" value="" style="ellipse;whiteSpace=wrap;html=1;aspect=fixed;" vertex="1" parent="gNZy8tcKWQFt4iCztj_j-108">
          <mxGeometry x="28.739002932551323" width="3.079178885630499" height="3.079178885630499" as="geometry" />
        </mxCell>
        <mxCell id="gNZy8tcKWQFt4iCztj_j-117" value="" style="group" vertex="1" connectable="0" parent="gNZy8tcKWQFt4iCztj_j-387">
          <mxGeometry x="38.171818181818196" y="109.08909090909088" width="31.81818181818182" height="6.818181818181818" as="geometry" />
        </mxCell>
        <mxCell id="gNZy8tcKWQFt4iCztj_j-118" value="" style="ellipse;whiteSpace=wrap;html=1;aspect=fixed;" vertex="1" parent="gNZy8tcKWQFt4iCztj_j-117">
          <mxGeometry x="8.21114369501466" width="3.079178885630499" height="3.079178885630499" as="geometry" />
        </mxCell>
        <mxCell id="gNZy8tcKWQFt4iCztj_j-119" value="" style="ellipse;whiteSpace=wrap;html=1;aspect=fixed;" vertex="1" parent="gNZy8tcKWQFt4iCztj_j-117">
          <mxGeometry x="12.316715542521996" width="3.079178885630499" height="3.079178885630499" as="geometry" />
        </mxCell>
        <mxCell id="gNZy8tcKWQFt4iCztj_j-120" value="" style="ellipse;whiteSpace=wrap;html=1;aspect=fixed;" vertex="1" parent="gNZy8tcKWQFt4iCztj_j-117">
          <mxGeometry x="4.10557184750733" width="3.079178885630499" height="3.079178885630499" as="geometry" />
        </mxCell>
        <mxCell id="gNZy8tcKWQFt4iCztj_j-121" value="" style="ellipse;whiteSpace=wrap;html=1;aspect=fixed;" vertex="1" parent="gNZy8tcKWQFt4iCztj_j-117">
          <mxGeometry width="3.079178885630499" height="3.079178885630499" as="geometry" />
        </mxCell>
        <mxCell id="gNZy8tcKWQFt4iCztj_j-122" value="" style="ellipse;whiteSpace=wrap;html=1;aspect=fixed;" vertex="1" parent="gNZy8tcKWQFt4iCztj_j-117">
          <mxGeometry x="16.42228739002932" width="3.079178885630499" height="3.079178885630499" as="geometry" />
        </mxCell>
        <mxCell id="gNZy8tcKWQFt4iCztj_j-123" value="" style="ellipse;whiteSpace=wrap;html=1;aspect=fixed;" vertex="1" parent="gNZy8tcKWQFt4iCztj_j-117">
          <mxGeometry x="20.52785923753666" width="3.079178885630499" height="3.079178885630499" as="geometry" />
        </mxCell>
        <mxCell id="gNZy8tcKWQFt4iCztj_j-124" value="" style="ellipse;whiteSpace=wrap;html=1;aspect=fixed;" vertex="1" parent="gNZy8tcKWQFt4iCztj_j-117">
          <mxGeometry x="24.63343108504399" width="3.079178885630499" height="3.079178885630499" as="geometry" />
        </mxCell>
        <mxCell id="gNZy8tcKWQFt4iCztj_j-125" value="" style="ellipse;whiteSpace=wrap;html=1;aspect=fixed;" vertex="1" parent="gNZy8tcKWQFt4iCztj_j-117">
          <mxGeometry x="28.739002932551323" width="3.079178885630499" height="3.079178885630499" as="geometry" />
        </mxCell>
        <mxCell id="gNZy8tcKWQFt4iCztj_j-126" value="" style="group" vertex="1" connectable="0" parent="gNZy8tcKWQFt4iCztj_j-387">
          <mxGeometry x="89.0836363636364" y="115.90909090909088" width="31.81818181818182" height="6.818181818181818" as="geometry" />
        </mxCell>
        <mxCell id="gNZy8tcKWQFt4iCztj_j-127" value="" style="ellipse;whiteSpace=wrap;html=1;aspect=fixed;" vertex="1" parent="gNZy8tcKWQFt4iCztj_j-126">
          <mxGeometry x="8.21114369501466" width="3.079178885630499" height="3.079178885630499" as="geometry" />
        </mxCell>
        <mxCell id="gNZy8tcKWQFt4iCztj_j-128" value="" style="ellipse;whiteSpace=wrap;html=1;aspect=fixed;" vertex="1" parent="gNZy8tcKWQFt4iCztj_j-126">
          <mxGeometry x="12.316715542521996" width="3.079178885630499" height="3.079178885630499" as="geometry" />
        </mxCell>
        <mxCell id="gNZy8tcKWQFt4iCztj_j-129" value="" style="ellipse;whiteSpace=wrap;html=1;aspect=fixed;" vertex="1" parent="gNZy8tcKWQFt4iCztj_j-126">
          <mxGeometry x="4.10557184750733" width="3.079178885630499" height="3.079178885630499" as="geometry" />
        </mxCell>
        <mxCell id="gNZy8tcKWQFt4iCztj_j-130" value="" style="ellipse;whiteSpace=wrap;html=1;aspect=fixed;" vertex="1" parent="gNZy8tcKWQFt4iCztj_j-126">
          <mxGeometry width="3.079178885630499" height="3.079178885630499" as="geometry" />
        </mxCell>
        <mxCell id="gNZy8tcKWQFt4iCztj_j-131" value="" style="ellipse;whiteSpace=wrap;html=1;aspect=fixed;" vertex="1" parent="gNZy8tcKWQFt4iCztj_j-126">
          <mxGeometry x="16.42228739002932" width="3.079178885630499" height="3.079178885630499" as="geometry" />
        </mxCell>
        <mxCell id="gNZy8tcKWQFt4iCztj_j-132" value="" style="ellipse;whiteSpace=wrap;html=1;aspect=fixed;" vertex="1" parent="gNZy8tcKWQFt4iCztj_j-126">
          <mxGeometry x="20.52785923753666" width="3.079178885630499" height="3.079178885630499" as="geometry" />
        </mxCell>
        <mxCell id="gNZy8tcKWQFt4iCztj_j-133" value="" style="ellipse;whiteSpace=wrap;html=1;aspect=fixed;" vertex="1" parent="gNZy8tcKWQFt4iCztj_j-126">
          <mxGeometry x="24.63343108504399" width="3.079178885630499" height="3.079178885630499" as="geometry" />
        </mxCell>
        <mxCell id="gNZy8tcKWQFt4iCztj_j-134" value="" style="ellipse;whiteSpace=wrap;html=1;aspect=fixed;" vertex="1" parent="gNZy8tcKWQFt4iCztj_j-126">
          <mxGeometry x="28.739002932551323" width="3.079178885630499" height="3.079178885630499" as="geometry" />
        </mxCell>
        <mxCell id="gNZy8tcKWQFt4iCztj_j-135" value="" style="group" vertex="1" connectable="0" parent="gNZy8tcKWQFt4iCztj_j-387">
          <mxGeometry x="114.53545454545457" y="109.99909090909085" width="31.81818181818182" height="6.818181818181818" as="geometry" />
        </mxCell>
        <mxCell id="gNZy8tcKWQFt4iCztj_j-136" value="" style="ellipse;whiteSpace=wrap;html=1;aspect=fixed;" vertex="1" parent="gNZy8tcKWQFt4iCztj_j-135">
          <mxGeometry x="8.21114369501466" width="3.079178885630499" height="3.079178885630499" as="geometry" />
        </mxCell>
        <mxCell id="gNZy8tcKWQFt4iCztj_j-137" value="" style="ellipse;whiteSpace=wrap;html=1;aspect=fixed;" vertex="1" parent="gNZy8tcKWQFt4iCztj_j-135">
          <mxGeometry x="12.316715542521996" width="3.079178885630499" height="3.079178885630499" as="geometry" />
        </mxCell>
        <mxCell id="gNZy8tcKWQFt4iCztj_j-138" value="" style="ellipse;whiteSpace=wrap;html=1;aspect=fixed;" vertex="1" parent="gNZy8tcKWQFt4iCztj_j-135">
          <mxGeometry x="4.10557184750733" width="3.079178885630499" height="3.079178885630499" as="geometry" />
        </mxCell>
        <mxCell id="gNZy8tcKWQFt4iCztj_j-139" value="" style="ellipse;whiteSpace=wrap;html=1;aspect=fixed;" vertex="1" parent="gNZy8tcKWQFt4iCztj_j-135">
          <mxGeometry width="3.079178885630499" height="3.079178885630499" as="geometry" />
        </mxCell>
        <mxCell id="gNZy8tcKWQFt4iCztj_j-140" value="" style="ellipse;whiteSpace=wrap;html=1;aspect=fixed;" vertex="1" parent="gNZy8tcKWQFt4iCztj_j-135">
          <mxGeometry x="16.42228739002932" width="3.079178885630499" height="3.079178885630499" as="geometry" />
        </mxCell>
        <mxCell id="gNZy8tcKWQFt4iCztj_j-141" value="" style="ellipse;whiteSpace=wrap;html=1;aspect=fixed;" vertex="1" parent="gNZy8tcKWQFt4iCztj_j-135">
          <mxGeometry x="20.52785923753666" width="3.079178885630499" height="3.079178885630499" as="geometry" />
        </mxCell>
        <mxCell id="gNZy8tcKWQFt4iCztj_j-142" value="" style="ellipse;whiteSpace=wrap;html=1;aspect=fixed;" vertex="1" parent="gNZy8tcKWQFt4iCztj_j-135">
          <mxGeometry x="24.63343108504399" width="3.079178885630499" height="3.079178885630499" as="geometry" />
        </mxCell>
        <mxCell id="gNZy8tcKWQFt4iCztj_j-143" value="" style="ellipse;whiteSpace=wrap;html=1;aspect=fixed;" vertex="1" parent="gNZy8tcKWQFt4iCztj_j-135">
          <mxGeometry x="28.739002932551323" width="3.079178885630499" height="3.079178885630499" as="geometry" />
        </mxCell>
        <mxCell id="gNZy8tcKWQFt4iCztj_j-144" value="" style="group;container=0;" vertex="1" connectable="0" parent="gNZy8tcKWQFt4iCztj_j-387">
          <mxGeometry x="15.9" y="139.99545454545455" width="197.27272727272728" height="20.454545454545457" as="geometry" />
        </mxCell>
        <mxCell id="gNZy8tcKWQFt4iCztj_j-145" value="" style="group" vertex="1" connectable="0" parent="gNZy8tcKWQFt4iCztj_j-387">
          <mxGeometry x="139.99818181818188" y="115.90909090909088" width="31.81818181818182" height="6.818181818181818" as="geometry" />
        </mxCell>
        <mxCell id="gNZy8tcKWQFt4iCztj_j-146" value="" style="ellipse;whiteSpace=wrap;html=1;aspect=fixed;" vertex="1" parent="gNZy8tcKWQFt4iCztj_j-145">
          <mxGeometry x="8.21114369501466" width="3.079178885630499" height="3.079178885630499" as="geometry" />
        </mxCell>
        <mxCell id="gNZy8tcKWQFt4iCztj_j-147" value="" style="ellipse;whiteSpace=wrap;html=1;aspect=fixed;" vertex="1" parent="gNZy8tcKWQFt4iCztj_j-145">
          <mxGeometry x="12.316715542521996" width="3.079178885630499" height="3.079178885630499" as="geometry" />
        </mxCell>
        <mxCell id="gNZy8tcKWQFt4iCztj_j-148" value="" style="ellipse;whiteSpace=wrap;html=1;aspect=fixed;" vertex="1" parent="gNZy8tcKWQFt4iCztj_j-145">
          <mxGeometry x="4.10557184750733" width="3.079178885630499" height="3.079178885630499" as="geometry" />
        </mxCell>
        <mxCell id="gNZy8tcKWQFt4iCztj_j-149" value="" style="ellipse;whiteSpace=wrap;html=1;aspect=fixed;" vertex="1" parent="gNZy8tcKWQFt4iCztj_j-145">
          <mxGeometry width="3.079178885630499" height="3.079178885630499" as="geometry" />
        </mxCell>
        <mxCell id="gNZy8tcKWQFt4iCztj_j-150" value="" style="ellipse;whiteSpace=wrap;html=1;aspect=fixed;" vertex="1" parent="gNZy8tcKWQFt4iCztj_j-145">
          <mxGeometry x="16.42228739002932" width="3.079178885630499" height="3.079178885630499" as="geometry" />
        </mxCell>
        <mxCell id="gNZy8tcKWQFt4iCztj_j-151" value="" style="ellipse;whiteSpace=wrap;html=1;aspect=fixed;" vertex="1" parent="gNZy8tcKWQFt4iCztj_j-145">
          <mxGeometry x="20.52785923753666" width="3.079178885630499" height="3.079178885630499" as="geometry" />
        </mxCell>
        <mxCell id="gNZy8tcKWQFt4iCztj_j-152" value="" style="ellipse;whiteSpace=wrap;html=1;aspect=fixed;" vertex="1" parent="gNZy8tcKWQFt4iCztj_j-145">
          <mxGeometry x="24.63343108504399" width="3.079178885630499" height="3.079178885630499" as="geometry" />
        </mxCell>
        <mxCell id="gNZy8tcKWQFt4iCztj_j-153" value="" style="ellipse;whiteSpace=wrap;html=1;aspect=fixed;" vertex="1" parent="gNZy8tcKWQFt4iCztj_j-145">
          <mxGeometry x="28.739002932551323" width="3.079178885630499" height="3.079178885630499" as="geometry" />
        </mxCell>
        <mxCell id="gNZy8tcKWQFt4iCztj_j-154" value="" style="group" vertex="1" connectable="0" parent="gNZy8tcKWQFt4iCztj_j-387">
          <mxGeometry x="165.45000000000005" y="109.08909090909088" width="31.81818181818182" height="6.818181818181818" as="geometry" />
        </mxCell>
        <mxCell id="gNZy8tcKWQFt4iCztj_j-155" value="" style="ellipse;whiteSpace=wrap;html=1;aspect=fixed;" vertex="1" parent="gNZy8tcKWQFt4iCztj_j-154">
          <mxGeometry x="8.21114369501466" width="3.079178885630499" height="3.079178885630499" as="geometry" />
        </mxCell>
        <mxCell id="gNZy8tcKWQFt4iCztj_j-156" value="" style="ellipse;whiteSpace=wrap;html=1;aspect=fixed;" vertex="1" parent="gNZy8tcKWQFt4iCztj_j-154">
          <mxGeometry x="12.316715542521996" width="3.079178885630499" height="3.079178885630499" as="geometry" />
        </mxCell>
        <mxCell id="gNZy8tcKWQFt4iCztj_j-157" value="" style="ellipse;whiteSpace=wrap;html=1;aspect=fixed;" vertex="1" parent="gNZy8tcKWQFt4iCztj_j-154">
          <mxGeometry x="4.10557184750733" width="3.079178885630499" height="3.079178885630499" as="geometry" />
        </mxCell>
        <mxCell id="gNZy8tcKWQFt4iCztj_j-158" value="" style="ellipse;whiteSpace=wrap;html=1;aspect=fixed;" vertex="1" parent="gNZy8tcKWQFt4iCztj_j-154">
          <mxGeometry width="3.079178885630499" height="3.079178885630499" as="geometry" />
        </mxCell>
        <mxCell id="gNZy8tcKWQFt4iCztj_j-159" value="" style="ellipse;whiteSpace=wrap;html=1;aspect=fixed;" vertex="1" parent="gNZy8tcKWQFt4iCztj_j-154">
          <mxGeometry x="16.42228739002932" width="3.079178885630499" height="3.079178885630499" as="geometry" />
        </mxCell>
        <mxCell id="gNZy8tcKWQFt4iCztj_j-160" value="" style="ellipse;whiteSpace=wrap;html=1;aspect=fixed;" vertex="1" parent="gNZy8tcKWQFt4iCztj_j-154">
          <mxGeometry x="20.52785923753666" width="3.079178885630499" height="3.079178885630499" as="geometry" />
        </mxCell>
        <mxCell id="gNZy8tcKWQFt4iCztj_j-161" value="" style="ellipse;whiteSpace=wrap;html=1;aspect=fixed;" vertex="1" parent="gNZy8tcKWQFt4iCztj_j-154">
          <mxGeometry x="24.63343108504399" width="3.079178885630499" height="3.079178885630499" as="geometry" />
        </mxCell>
        <mxCell id="gNZy8tcKWQFt4iCztj_j-162" value="" style="ellipse;whiteSpace=wrap;html=1;aspect=fixed;" vertex="1" parent="gNZy8tcKWQFt4iCztj_j-154">
          <mxGeometry x="28.739002932551323" width="3.079178885630499" height="3.079178885630499" as="geometry" />
        </mxCell>
        <mxCell id="gNZy8tcKWQFt4iCztj_j-163" value="" style="group" vertex="1" connectable="0" parent="gNZy8tcKWQFt4iCztj_j-387">
          <mxGeometry x="190.90181818181821" y="115.90909090909088" width="31.81818181818182" height="6.818181818181818" as="geometry" />
        </mxCell>
        <mxCell id="gNZy8tcKWQFt4iCztj_j-164" value="" style="ellipse;whiteSpace=wrap;html=1;aspect=fixed;" vertex="1" parent="gNZy8tcKWQFt4iCztj_j-163">
          <mxGeometry x="8.21114369501466" width="3.079178885630499" height="3.079178885630499" as="geometry" />
        </mxCell>
        <mxCell id="gNZy8tcKWQFt4iCztj_j-165" value="" style="ellipse;whiteSpace=wrap;html=1;aspect=fixed;" vertex="1" parent="gNZy8tcKWQFt4iCztj_j-163">
          <mxGeometry x="12.316715542521996" width="3.079178885630499" height="3.079178885630499" as="geometry" />
        </mxCell>
        <mxCell id="gNZy8tcKWQFt4iCztj_j-166" value="" style="ellipse;whiteSpace=wrap;html=1;aspect=fixed;" vertex="1" parent="gNZy8tcKWQFt4iCztj_j-163">
          <mxGeometry x="4.10557184750733" width="3.079178885630499" height="3.079178885630499" as="geometry" />
        </mxCell>
        <mxCell id="gNZy8tcKWQFt4iCztj_j-167" value="" style="ellipse;whiteSpace=wrap;html=1;aspect=fixed;" vertex="1" parent="gNZy8tcKWQFt4iCztj_j-163">
          <mxGeometry width="3.079178885630499" height="3.079178885630499" as="geometry" />
        </mxCell>
        <mxCell id="gNZy8tcKWQFt4iCztj_j-168" value="" style="ellipse;whiteSpace=wrap;html=1;aspect=fixed;" vertex="1" parent="gNZy8tcKWQFt4iCztj_j-163">
          <mxGeometry x="16.42228739002932" width="3.079178885630499" height="3.079178885630499" as="geometry" />
        </mxCell>
        <mxCell id="gNZy8tcKWQFt4iCztj_j-169" value="" style="ellipse;whiteSpace=wrap;html=1;aspect=fixed;" vertex="1" parent="gNZy8tcKWQFt4iCztj_j-163">
          <mxGeometry x="20.52785923753666" width="3.079178885630499" height="3.079178885630499" as="geometry" />
        </mxCell>
        <mxCell id="gNZy8tcKWQFt4iCztj_j-170" value="" style="ellipse;whiteSpace=wrap;html=1;aspect=fixed;" vertex="1" parent="gNZy8tcKWQFt4iCztj_j-163">
          <mxGeometry x="24.63343108504399" width="3.079178885630499" height="3.079178885630499" as="geometry" />
        </mxCell>
        <mxCell id="gNZy8tcKWQFt4iCztj_j-171" value="" style="ellipse;whiteSpace=wrap;html=1;aspect=fixed;" vertex="1" parent="gNZy8tcKWQFt4iCztj_j-163">
          <mxGeometry x="28.739002932551323" width="3.079178885630499" height="3.079178885630499" as="geometry" />
        </mxCell>
        <mxCell id="gNZy8tcKWQFt4iCztj_j-174" value="" style="endArrow=none;dashed=1;html=1;dashPattern=1 3;strokeWidth=2;rounded=0;entryX=0.5;entryY=1;entryDx=0;entryDy=0;exitX=0.5;exitY=0;exitDx=0;exitDy=0;" edge="1" parent="gNZy8tcKWQFt4iCztj_j-387" source="gNZy8tcKWQFt4iCztj_j-122" target="gNZy8tcKWQFt4iCztj_j-101">
          <mxGeometry width="50" height="50" relative="1" as="geometry">
            <mxPoint x="-5.096363636363606" y="122.72727272727275" as="sourcePoint" />
            <mxPoint x="27.99454545454546" y="79.09090909090912" as="targetPoint" />
          </mxGeometry>
        </mxCell>
        <mxCell id="gNZy8tcKWQFt4iCztj_j-175" value="" style="ellipse;whiteSpace=wrap;html=1;aspect=fixed;" vertex="1" parent="gNZy8tcKWQFt4iCztj_j-387">
          <mxGeometry x="66.80909090909094" y="139.99545454545455" width="19.09090909090909" height="19.09090909090909" as="geometry" />
        </mxCell>
        <mxCell id="gNZy8tcKWQFt4iCztj_j-176" value="" style="ellipse;whiteSpace=wrap;html=1;aspect=fixed;" vertex="1" parent="gNZy8tcKWQFt4iCztj_j-387">
          <mxGeometry x="92.26363636363638" y="139.99545454545455" width="19.09090909090909" height="19.09090909090909" as="geometry" />
        </mxCell>
        <mxCell id="gNZy8tcKWQFt4iCztj_j-177" value="" style="ellipse;whiteSpace=wrap;html=1;aspect=fixed;" vertex="1" parent="gNZy8tcKWQFt4iCztj_j-387">
          <mxGeometry x="41.354545454545494" y="139.99545454545455" width="19.09090909090909" height="19.09090909090909" as="geometry" />
        </mxCell>
        <mxCell id="gNZy8tcKWQFt4iCztj_j-178" value="" style="ellipse;whiteSpace=wrap;html=1;aspect=fixed;" vertex="1" parent="gNZy8tcKWQFt4iCztj_j-387">
          <mxGeometry x="15.9" y="139.99545454545455" width="19.09090909090909" height="19.09090909090909" as="geometry" />
        </mxCell>
        <mxCell id="gNZy8tcKWQFt4iCztj_j-179" value="" style="ellipse;whiteSpace=wrap;html=1;aspect=fixed;" vertex="1" parent="gNZy8tcKWQFt4iCztj_j-387">
          <mxGeometry x="117.71818181818188" y="139.99545454545455" width="19.09090909090909" height="19.09090909090909" as="geometry" />
        </mxCell>
        <mxCell id="gNZy8tcKWQFt4iCztj_j-180" value="" style="ellipse;whiteSpace=wrap;html=1;aspect=fixed;" vertex="1" parent="gNZy8tcKWQFt4iCztj_j-387">
          <mxGeometry x="143.17272727272726" y="139.99545454545455" width="19.09090909090909" height="19.09090909090909" as="geometry" />
        </mxCell>
        <mxCell id="gNZy8tcKWQFt4iCztj_j-181" value="" style="ellipse;whiteSpace=wrap;html=1;aspect=fixed;" vertex="1" parent="gNZy8tcKWQFt4iCztj_j-387">
          <mxGeometry x="168.62727272727275" y="139.99545454545455" width="19.09090909090909" height="19.09090909090909" as="geometry" />
        </mxCell>
        <mxCell id="gNZy8tcKWQFt4iCztj_j-182" value="" style="ellipse;whiteSpace=wrap;html=1;aspect=fixed;fillColor=#f8cecc;strokeColor=#b85450;" vertex="1" parent="gNZy8tcKWQFt4iCztj_j-387">
          <mxGeometry x="194.08181818181825" y="139.99545454545455" width="19.09090909090909" height="19.09090909090909" as="geometry" />
        </mxCell>
        <mxCell id="gNZy8tcKWQFt4iCztj_j-183" value="" style="endArrow=none;dashed=1;html=1;dashPattern=1 3;strokeWidth=2;rounded=0;entryX=0.5;entryY=1;entryDx=0;entryDy=0;exitX=0.5;exitY=0;exitDx=0;exitDy=0;" edge="1" parent="gNZy8tcKWQFt4iCztj_j-387" source="gNZy8tcKWQFt4iCztj_j-131" target="gNZy8tcKWQFt4iCztj_j-100">
          <mxGeometry width="50" height="50" relative="1" as="geometry">
            <mxPoint x="36.903636363636394" y="122.72727272727275" as="sourcePoint" />
            <mxPoint x="60.449090909090955" y="81.81818181818181" as="targetPoint" />
          </mxGeometry>
        </mxCell>
        <mxCell id="gNZy8tcKWQFt4iCztj_j-184" value="" style="endArrow=none;dashed=1;html=1;dashPattern=1 3;strokeWidth=2;rounded=0;entryX=0.5;entryY=1;entryDx=0;entryDy=0;exitX=0.5;exitY=0;exitDx=0;exitDy=0;" edge="1" parent="gNZy8tcKWQFt4iCztj_j-387" source="gNZy8tcKWQFt4iCztj_j-137" target="gNZy8tcKWQFt4iCztj_j-103">
          <mxGeometry width="50" height="50" relative="1" as="geometry">
            <mxPoint x="43.26727272727277" y="129.54545454545456" as="sourcePoint" />
            <mxPoint x="66.81272727272727" y="88.63636363636363" as="targetPoint" />
          </mxGeometry>
        </mxCell>
        <mxCell id="gNZy8tcKWQFt4iCztj_j-185" value="" style="endArrow=none;dashed=1;html=1;dashPattern=1 3;strokeWidth=2;rounded=0;entryX=0.5;entryY=1;entryDx=0;entryDy=0;exitX=0.5;exitY=0;exitDx=0;exitDy=0;" edge="1" parent="gNZy8tcKWQFt4iCztj_j-387" source="gNZy8tcKWQFt4iCztj_j-150" target="gNZy8tcKWQFt4iCztj_j-104">
          <mxGeometry width="50" height="50" relative="1" as="geometry">
            <mxPoint x="49.63090909090914" y="136.36363636363637" as="sourcePoint" />
            <mxPoint x="73.17636363636365" y="95.45454545454544" as="targetPoint" />
          </mxGeometry>
        </mxCell>
        <mxCell id="gNZy8tcKWQFt4iCztj_j-186" value="" style="endArrow=none;dashed=1;html=1;dashPattern=1 3;strokeWidth=2;rounded=0;entryX=0.5;entryY=1;entryDx=0;entryDy=0;exitX=0.5;exitY=0;exitDx=0;exitDy=0;" edge="1" parent="gNZy8tcKWQFt4iCztj_j-387" source="gNZy8tcKWQFt4iCztj_j-159" target="gNZy8tcKWQFt4iCztj_j-105">
          <mxGeometry width="50" height="50" relative="1" as="geometry">
            <mxPoint x="170.54000000000002" y="122.72727272727275" as="sourcePoint" />
            <mxPoint x="162.26727272727277" y="81.81818181818181" as="targetPoint" />
          </mxGeometry>
        </mxCell>
        <mxCell id="gNZy8tcKWQFt4iCztj_j-187" value="" style="endArrow=none;dashed=1;html=1;dashPattern=1 3;strokeWidth=2;rounded=0;entryX=0.5;entryY=1;entryDx=0;entryDy=0;exitX=0.5;exitY=0;exitDx=0;exitDy=0;" edge="1" parent="gNZy8tcKWQFt4iCztj_j-387" source="gNZy8tcKWQFt4iCztj_j-165" target="gNZy8tcKWQFt4iCztj_j-106">
          <mxGeometry width="50" height="50" relative="1" as="geometry">
            <mxPoint x="176.9036363636364" y="129.54545454545456" as="sourcePoint" />
            <mxPoint x="168.63090909090914" y="88.63636363636363" as="targetPoint" />
          </mxGeometry>
        </mxCell>
        <mxCell id="gNZy8tcKWQFt4iCztj_j-384" value="" style="endArrow=classic;html=1;rounded=0;exitX=0.5;exitY=1;exitDx=0;exitDy=0;entryX=1;entryY=0;entryDx=0;entryDy=0;" edge="1" parent="gNZy8tcKWQFt4iCztj_j-387" source="gNZy8tcKWQFt4iCztj_j-99" target="gNZy8tcKWQFt4iCztj_j-98">
          <mxGeometry width="50" height="50" relative="1" as="geometry">
            <mxPoint x="84.54000000000002" y="130" as="sourcePoint" />
            <mxPoint x="134.54000000000002" y="80" as="targetPoint" />
          </mxGeometry>
        </mxCell>
        <mxCell id="gNZy8tcKWQFt4iCztj_j-385" value="" style="curved=1;endArrow=classic;html=1;rounded=0;exitX=0.5;exitY=1;exitDx=0;exitDy=0;entryX=0.5;entryY=0;entryDx=0;entryDy=0;" edge="1" parent="gNZy8tcKWQFt4iCztj_j-387" source="gNZy8tcKWQFt4iCztj_j-98" target="gNZy8tcKWQFt4iCztj_j-182">
          <mxGeometry width="50" height="50" relative="1" as="geometry">
            <mxPoint x="45.68000000000001" y="93.63636363636374" as="sourcePoint" />
            <mxPoint x="100.68" y="100" as="targetPoint" />
            <Array as="points">
              <mxPoint x="64.54000000000002" y="130" />
              <mxPoint x="154.54000000000002" y="130" />
            </Array>
          </mxGeometry>
        </mxCell>
        <mxCell id="gNZy8tcKWQFt4iCztj_j-388" value="" style="curved=1;endArrow=classic;html=1;rounded=0;exitX=0.5;exitY=1;exitDx=0;exitDy=0;entryX=1;entryY=0;entryDx=0;entryDy=0;" edge="1" parent="1" source="gNZy8tcKWQFt4iCztj_j-7" target="gNZy8tcKWQFt4iCztj_j-12">
          <mxGeometry width="50" height="50" relative="1" as="geometry">
            <mxPoint x="160" y="340" as="sourcePoint" />
            <mxPoint x="210" y="290" as="targetPoint" />
            <Array as="points">
              <mxPoint x="160" y="350" />
              <mxPoint x="160" y="360" />
            </Array>
          </mxGeometry>
        </mxCell>
        <mxCell id="gNZy8tcKWQFt4iCztj_j-281" value="" style="ellipse;whiteSpace=wrap;html=1;aspect=fixed;" vertex="1" parent="1">
          <mxGeometry x="563.6345454545454" y="284.54545454545456" width="19.09090909090909" height="19.09090909090909" as="geometry" />
        </mxCell>
        <mxCell id="gNZy8tcKWQFt4iCztj_j-283" value="" style="ellipse;whiteSpace=wrap;html=1;aspect=fixed;" vertex="1" parent="1">
          <mxGeometry x="589.0890909090908" y="284.54545454545456" width="19.09090909090909" height="19.09090909090909" as="geometry" />
        </mxCell>
        <mxCell id="gNZy8tcKWQFt4iCztj_j-284" value="" style="ellipse;whiteSpace=wrap;html=1;aspect=fixed;" vertex="1" parent="1">
          <mxGeometry x="538.18" y="284.54545454545456" width="19.09090909090909" height="19.09090909090909" as="geometry" />
        </mxCell>
        <mxCell id="gNZy8tcKWQFt4iCztj_j-285" value="" style="ellipse;whiteSpace=wrap;html=1;aspect=fixed;" vertex="1" parent="1">
          <mxGeometry x="512.7254545454545" y="284.54545454545456" width="19.09090909090909" height="19.09090909090909" as="geometry" />
        </mxCell>
        <mxCell id="gNZy8tcKWQFt4iCztj_j-286" value="" style="ellipse;whiteSpace=wrap;html=1;aspect=fixed;" vertex="1" parent="1">
          <mxGeometry x="614.5436363636363" y="284.54545454545456" width="19.09090909090909" height="19.09090909090909" as="geometry" />
        </mxCell>
        <mxCell id="gNZy8tcKWQFt4iCztj_j-287" value="" style="ellipse;whiteSpace=wrap;html=1;aspect=fixed;" vertex="1" parent="1">
          <mxGeometry x="639.9981818181818" y="284.54545454545456" width="19.09090909090909" height="19.09090909090909" as="geometry" />
        </mxCell>
        <mxCell id="gNZy8tcKWQFt4iCztj_j-288" value="" style="ellipse;whiteSpace=wrap;html=1;aspect=fixed;" vertex="1" parent="1">
          <mxGeometry x="665.4527272727272" y="284.54545454545456" width="19.09090909090909" height="19.09090909090909" as="geometry" />
        </mxCell>
        <mxCell id="gNZy8tcKWQFt4iCztj_j-289" value="" style="ellipse;whiteSpace=wrap;html=1;aspect=fixed;fillColor=#f8cecc;strokeColor=#b85450;" vertex="1" parent="1">
          <mxGeometry x="690.9072727272727" y="284.54545454545456" width="19.09090909090909" height="19.09090909090909" as="geometry" />
        </mxCell>
        <mxCell id="gNZy8tcKWQFt4iCztj_j-290" value="" style="endArrow=none;dashed=1;html=1;dashPattern=1 3;strokeWidth=2;rounded=0;entryX=0.5;entryY=1;entryDx=0;entryDy=0;exitX=0.5;exitY=0;exitDx=0;exitDy=0;" edge="1" parent="1" source="gNZy8tcKWQFt4iCztj_j-293" target="gNZy8tcKWQFt4iCztj_j-285">
          <mxGeometry width="50" height="50" relative="1" as="geometry">
            <mxPoint x="487.2709090909091" y="339.0909090909091" as="sourcePoint" />
            <mxPoint x="519.0890909090908" y="305" as="targetPoint" />
          </mxGeometry>
        </mxCell>
        <mxCell id="gNZy8tcKWQFt4iCztj_j-291" value="" style="group" vertex="1" connectable="0" parent="1">
          <mxGeometry x="500" y="339.0890909090908" width="31.81818181818182" height="6.818181818181818" as="geometry" />
        </mxCell>
        <mxCell id="gNZy8tcKWQFt4iCztj_j-292" value="" style="ellipse;whiteSpace=wrap;html=1;aspect=fixed;" vertex="1" parent="gNZy8tcKWQFt4iCztj_j-291">
          <mxGeometry x="8.21114369501466" width="3.079178885630499" height="3.079178885630499" as="geometry" />
        </mxCell>
        <mxCell id="gNZy8tcKWQFt4iCztj_j-293" value="" style="ellipse;whiteSpace=wrap;html=1;aspect=fixed;" vertex="1" parent="gNZy8tcKWQFt4iCztj_j-291">
          <mxGeometry x="12.316715542521996" width="3.079178885630499" height="3.079178885630499" as="geometry" />
        </mxCell>
        <mxCell id="gNZy8tcKWQFt4iCztj_j-294" value="" style="ellipse;whiteSpace=wrap;html=1;aspect=fixed;" vertex="1" parent="gNZy8tcKWQFt4iCztj_j-291">
          <mxGeometry x="4.10557184750733" width="3.079178885630499" height="3.079178885630499" as="geometry" />
        </mxCell>
        <mxCell id="gNZy8tcKWQFt4iCztj_j-295" value="" style="ellipse;whiteSpace=wrap;html=1;aspect=fixed;" vertex="1" parent="gNZy8tcKWQFt4iCztj_j-291">
          <mxGeometry width="3.079178885630499" height="3.079178885630499" as="geometry" />
        </mxCell>
        <mxCell id="gNZy8tcKWQFt4iCztj_j-296" value="" style="ellipse;whiteSpace=wrap;html=1;aspect=fixed;" vertex="1" parent="gNZy8tcKWQFt4iCztj_j-291">
          <mxGeometry x="16.42228739002932" width="3.079178885630499" height="3.079178885630499" as="geometry" />
        </mxCell>
        <mxCell id="gNZy8tcKWQFt4iCztj_j-297" value="" style="ellipse;whiteSpace=wrap;html=1;aspect=fixed;" vertex="1" parent="gNZy8tcKWQFt4iCztj_j-291">
          <mxGeometry x="20.52785923753666" width="3.079178885630499" height="3.079178885630499" as="geometry" />
        </mxCell>
        <mxCell id="gNZy8tcKWQFt4iCztj_j-298" value="" style="ellipse;whiteSpace=wrap;html=1;aspect=fixed;" vertex="1" parent="gNZy8tcKWQFt4iCztj_j-291">
          <mxGeometry x="24.63343108504399" width="3.079178885630499" height="3.079178885630499" as="geometry" />
        </mxCell>
        <mxCell id="gNZy8tcKWQFt4iCztj_j-299" value="" style="ellipse;whiteSpace=wrap;html=1;aspect=fixed;" vertex="1" parent="gNZy8tcKWQFt4iCztj_j-291">
          <mxGeometry x="28.739002932551323" width="3.079178885630499" height="3.079178885630499" as="geometry" />
        </mxCell>
        <mxCell id="gNZy8tcKWQFt4iCztj_j-300" value="" style="group" vertex="1" connectable="0" parent="1">
          <mxGeometry x="531.8118181818181" y="345.9090909090909" width="31.81818181818182" height="6.818181818181818" as="geometry" />
        </mxCell>
        <mxCell id="gNZy8tcKWQFt4iCztj_j-301" value="" style="ellipse;whiteSpace=wrap;html=1;aspect=fixed;" vertex="1" parent="gNZy8tcKWQFt4iCztj_j-300">
          <mxGeometry x="8.21114369501466" width="3.079178885630499" height="3.079178885630499" as="geometry" />
        </mxCell>
        <mxCell id="gNZy8tcKWQFt4iCztj_j-302" value="" style="ellipse;whiteSpace=wrap;html=1;aspect=fixed;" vertex="1" parent="gNZy8tcKWQFt4iCztj_j-300">
          <mxGeometry x="12.316715542521996" width="3.079178885630499" height="3.079178885630499" as="geometry" />
        </mxCell>
        <mxCell id="gNZy8tcKWQFt4iCztj_j-303" value="" style="ellipse;whiteSpace=wrap;html=1;aspect=fixed;" vertex="1" parent="gNZy8tcKWQFt4iCztj_j-300">
          <mxGeometry x="4.10557184750733" width="3.079178885630499" height="3.079178885630499" as="geometry" />
        </mxCell>
        <mxCell id="gNZy8tcKWQFt4iCztj_j-304" value="" style="ellipse;whiteSpace=wrap;html=1;aspect=fixed;" vertex="1" parent="gNZy8tcKWQFt4iCztj_j-300">
          <mxGeometry width="3.079178885630499" height="3.079178885630499" as="geometry" />
        </mxCell>
        <mxCell id="gNZy8tcKWQFt4iCztj_j-305" value="" style="ellipse;whiteSpace=wrap;html=1;aspect=fixed;" vertex="1" parent="gNZy8tcKWQFt4iCztj_j-300">
          <mxGeometry x="16.42228739002932" width="3.079178885630499" height="3.079178885630499" as="geometry" />
        </mxCell>
        <mxCell id="gNZy8tcKWQFt4iCztj_j-306" value="" style="ellipse;whiteSpace=wrap;html=1;aspect=fixed;" vertex="1" parent="gNZy8tcKWQFt4iCztj_j-300">
          <mxGeometry x="20.52785923753666" width="3.079178885630499" height="3.079178885630499" as="geometry" />
        </mxCell>
        <mxCell id="gNZy8tcKWQFt4iCztj_j-307" value="" style="ellipse;whiteSpace=wrap;html=1;aspect=fixed;" vertex="1" parent="gNZy8tcKWQFt4iCztj_j-300">
          <mxGeometry x="24.63343108504399" width="3.079178885630499" height="3.079178885630499" as="geometry" />
        </mxCell>
        <mxCell id="gNZy8tcKWQFt4iCztj_j-308" value="" style="ellipse;whiteSpace=wrap;html=1;aspect=fixed;" vertex="1" parent="gNZy8tcKWQFt4iCztj_j-300">
          <mxGeometry x="28.739002932551323" width="3.079178885630499" height="3.079178885630499" as="geometry" />
        </mxCell>
        <mxCell id="gNZy8tcKWQFt4iCztj_j-309" value="" style="group" vertex="1" connectable="0" parent="1">
          <mxGeometry x="557.2736363636363" y="339.0890909090909" width="31.81818181818182" height="6.818181818181818" as="geometry" />
        </mxCell>
        <mxCell id="gNZy8tcKWQFt4iCztj_j-310" value="" style="ellipse;whiteSpace=wrap;html=1;aspect=fixed;" vertex="1" parent="gNZy8tcKWQFt4iCztj_j-309">
          <mxGeometry x="8.21114369501466" width="3.079178885630499" height="3.079178885630499" as="geometry" />
        </mxCell>
        <mxCell id="gNZy8tcKWQFt4iCztj_j-311" value="" style="ellipse;whiteSpace=wrap;html=1;aspect=fixed;" vertex="1" parent="gNZy8tcKWQFt4iCztj_j-309">
          <mxGeometry x="12.316715542521996" width="3.079178885630499" height="3.079178885630499" as="geometry" />
        </mxCell>
        <mxCell id="gNZy8tcKWQFt4iCztj_j-312" value="" style="ellipse;whiteSpace=wrap;html=1;aspect=fixed;" vertex="1" parent="gNZy8tcKWQFt4iCztj_j-309">
          <mxGeometry x="4.10557184750733" width="3.079178885630499" height="3.079178885630499" as="geometry" />
        </mxCell>
        <mxCell id="gNZy8tcKWQFt4iCztj_j-313" value="" style="ellipse;whiteSpace=wrap;html=1;aspect=fixed;" vertex="1" parent="gNZy8tcKWQFt4iCztj_j-309">
          <mxGeometry width="3.079178885630499" height="3.079178885630499" as="geometry" />
        </mxCell>
        <mxCell id="gNZy8tcKWQFt4iCztj_j-314" value="" style="ellipse;whiteSpace=wrap;html=1;aspect=fixed;" vertex="1" parent="gNZy8tcKWQFt4iCztj_j-309">
          <mxGeometry x="16.42228739002932" width="3.079178885630499" height="3.079178885630499" as="geometry" />
        </mxCell>
        <mxCell id="gNZy8tcKWQFt4iCztj_j-315" value="" style="ellipse;whiteSpace=wrap;html=1;aspect=fixed;" vertex="1" parent="gNZy8tcKWQFt4iCztj_j-309">
          <mxGeometry x="20.52785923753666" width="3.079178885630499" height="3.079178885630499" as="geometry" />
        </mxCell>
        <mxCell id="gNZy8tcKWQFt4iCztj_j-316" value="" style="ellipse;whiteSpace=wrap;html=1;aspect=fixed;" vertex="1" parent="gNZy8tcKWQFt4iCztj_j-309">
          <mxGeometry x="24.63343108504399" width="3.079178885630499" height="3.079178885630499" as="geometry" />
        </mxCell>
        <mxCell id="gNZy8tcKWQFt4iCztj_j-317" value="" style="ellipse;whiteSpace=wrap;html=1;aspect=fixed;" vertex="1" parent="gNZy8tcKWQFt4iCztj_j-309">
          <mxGeometry x="28.739002932551323" width="3.079178885630499" height="3.079178885630499" as="geometry" />
        </mxCell>
        <mxCell id="gNZy8tcKWQFt4iCztj_j-318" value="" style="group" vertex="1" connectable="0" parent="1">
          <mxGeometry x="582.7254545454545" y="345.9090909090909" width="31.81818181818182" height="6.818181818181818" as="geometry" />
        </mxCell>
        <mxCell id="gNZy8tcKWQFt4iCztj_j-319" value="" style="ellipse;whiteSpace=wrap;html=1;aspect=fixed;" vertex="1" parent="gNZy8tcKWQFt4iCztj_j-318">
          <mxGeometry x="8.21114369501466" width="3.079178885630499" height="3.079178885630499" as="geometry" />
        </mxCell>
        <mxCell id="gNZy8tcKWQFt4iCztj_j-320" value="" style="ellipse;whiteSpace=wrap;html=1;aspect=fixed;" vertex="1" parent="gNZy8tcKWQFt4iCztj_j-318">
          <mxGeometry x="12.316715542521996" width="3.079178885630499" height="3.079178885630499" as="geometry" />
        </mxCell>
        <mxCell id="gNZy8tcKWQFt4iCztj_j-321" value="" style="ellipse;whiteSpace=wrap;html=1;aspect=fixed;" vertex="1" parent="gNZy8tcKWQFt4iCztj_j-318">
          <mxGeometry x="4.10557184750733" width="3.079178885630499" height="3.079178885630499" as="geometry" />
        </mxCell>
        <mxCell id="gNZy8tcKWQFt4iCztj_j-322" value="" style="ellipse;whiteSpace=wrap;html=1;aspect=fixed;" vertex="1" parent="gNZy8tcKWQFt4iCztj_j-318">
          <mxGeometry width="3.079178885630499" height="3.079178885630499" as="geometry" />
        </mxCell>
        <mxCell id="gNZy8tcKWQFt4iCztj_j-323" value="" style="ellipse;whiteSpace=wrap;html=1;aspect=fixed;" vertex="1" parent="gNZy8tcKWQFt4iCztj_j-318">
          <mxGeometry x="16.42228739002932" width="3.079178885630499" height="3.079178885630499" as="geometry" />
        </mxCell>
        <mxCell id="gNZy8tcKWQFt4iCztj_j-324" value="" style="ellipse;whiteSpace=wrap;html=1;aspect=fixed;" vertex="1" parent="gNZy8tcKWQFt4iCztj_j-318">
          <mxGeometry x="20.52785923753666" width="3.079178885630499" height="3.079178885630499" as="geometry" />
        </mxCell>
        <mxCell id="gNZy8tcKWQFt4iCztj_j-325" value="" style="ellipse;whiteSpace=wrap;html=1;aspect=fixed;" vertex="1" parent="gNZy8tcKWQFt4iCztj_j-318">
          <mxGeometry x="24.63343108504399" width="3.079178885630499" height="3.079178885630499" as="geometry" />
        </mxCell>
        <mxCell id="gNZy8tcKWQFt4iCztj_j-326" value="" style="ellipse;whiteSpace=wrap;html=1;aspect=fixed;" vertex="1" parent="gNZy8tcKWQFt4iCztj_j-318">
          <mxGeometry x="28.739002932551323" width="3.079178885630499" height="3.079178885630499" as="geometry" />
        </mxCell>
        <mxCell id="gNZy8tcKWQFt4iCztj_j-327" value="" style="group;container=0;" vertex="1" connectable="0" parent="1">
          <mxGeometry x="512.7299999999999" y="368.63545454545454" width="197.27272727272728" height="20.454545454545457" as="geometry" />
        </mxCell>
        <mxCell id="gNZy8tcKWQFt4iCztj_j-328" value="" style="group" vertex="1" connectable="0" parent="1">
          <mxGeometry x="633.6281818181818" y="345.9090909090909" width="31.81818181818182" height="6.818181818181818" as="geometry" />
        </mxCell>
        <mxCell id="gNZy8tcKWQFt4iCztj_j-329" value="" style="ellipse;whiteSpace=wrap;html=1;aspect=fixed;" vertex="1" parent="gNZy8tcKWQFt4iCztj_j-328">
          <mxGeometry x="8.21114369501466" width="3.079178885630499" height="3.079178885630499" as="geometry" />
        </mxCell>
        <mxCell id="gNZy8tcKWQFt4iCztj_j-330" value="" style="ellipse;whiteSpace=wrap;html=1;aspect=fixed;" vertex="1" parent="gNZy8tcKWQFt4iCztj_j-328">
          <mxGeometry x="12.316715542521996" width="3.079178885630499" height="3.079178885630499" as="geometry" />
        </mxCell>
        <mxCell id="gNZy8tcKWQFt4iCztj_j-331" value="" style="ellipse;whiteSpace=wrap;html=1;aspect=fixed;" vertex="1" parent="gNZy8tcKWQFt4iCztj_j-328">
          <mxGeometry x="4.10557184750733" width="3.079178885630499" height="3.079178885630499" as="geometry" />
        </mxCell>
        <mxCell id="gNZy8tcKWQFt4iCztj_j-332" value="" style="ellipse;whiteSpace=wrap;html=1;aspect=fixed;" vertex="1" parent="gNZy8tcKWQFt4iCztj_j-328">
          <mxGeometry width="3.079178885630499" height="3.079178885630499" as="geometry" />
        </mxCell>
        <mxCell id="gNZy8tcKWQFt4iCztj_j-333" value="" style="ellipse;whiteSpace=wrap;html=1;aspect=fixed;" vertex="1" parent="gNZy8tcKWQFt4iCztj_j-328">
          <mxGeometry x="16.42228739002932" width="3.079178885630499" height="3.079178885630499" as="geometry" />
        </mxCell>
        <mxCell id="gNZy8tcKWQFt4iCztj_j-334" value="" style="ellipse;whiteSpace=wrap;html=1;aspect=fixed;" vertex="1" parent="gNZy8tcKWQFt4iCztj_j-328">
          <mxGeometry x="20.52785923753666" width="3.079178885630499" height="3.079178885630499" as="geometry" />
        </mxCell>
        <mxCell id="gNZy8tcKWQFt4iCztj_j-335" value="" style="ellipse;whiteSpace=wrap;html=1;aspect=fixed;" vertex="1" parent="gNZy8tcKWQFt4iCztj_j-328">
          <mxGeometry x="24.63343108504399" width="3.079178885630499" height="3.079178885630499" as="geometry" />
        </mxCell>
        <mxCell id="gNZy8tcKWQFt4iCztj_j-336" value="" style="ellipse;whiteSpace=wrap;html=1;aspect=fixed;" vertex="1" parent="gNZy8tcKWQFt4iCztj_j-328">
          <mxGeometry x="28.739002932551323" width="3.079178885630499" height="3.079178885630499" as="geometry" />
        </mxCell>
        <mxCell id="gNZy8tcKWQFt4iCztj_j-337" value="" style="group" vertex="1" connectable="0" parent="1">
          <mxGeometry x="659.0899999999999" y="339.0890909090908" width="31.81818181818182" height="6.818181818181818" as="geometry" />
        </mxCell>
        <mxCell id="gNZy8tcKWQFt4iCztj_j-338" value="" style="ellipse;whiteSpace=wrap;html=1;aspect=fixed;" vertex="1" parent="gNZy8tcKWQFt4iCztj_j-337">
          <mxGeometry x="8.21114369501466" width="3.079178885630499" height="3.079178885630499" as="geometry" />
        </mxCell>
        <mxCell id="gNZy8tcKWQFt4iCztj_j-339" value="" style="ellipse;whiteSpace=wrap;html=1;aspect=fixed;" vertex="1" parent="gNZy8tcKWQFt4iCztj_j-337">
          <mxGeometry x="12.316715542521996" width="3.079178885630499" height="3.079178885630499" as="geometry" />
        </mxCell>
        <mxCell id="gNZy8tcKWQFt4iCztj_j-340" value="" style="ellipse;whiteSpace=wrap;html=1;aspect=fixed;" vertex="1" parent="gNZy8tcKWQFt4iCztj_j-337">
          <mxGeometry x="4.10557184750733" width="3.079178885630499" height="3.079178885630499" as="geometry" />
        </mxCell>
        <mxCell id="gNZy8tcKWQFt4iCztj_j-341" value="" style="ellipse;whiteSpace=wrap;html=1;aspect=fixed;" vertex="1" parent="gNZy8tcKWQFt4iCztj_j-337">
          <mxGeometry width="3.079178885630499" height="3.079178885630499" as="geometry" />
        </mxCell>
        <mxCell id="gNZy8tcKWQFt4iCztj_j-342" value="" style="ellipse;whiteSpace=wrap;html=1;aspect=fixed;" vertex="1" parent="gNZy8tcKWQFt4iCztj_j-337">
          <mxGeometry x="16.42228739002932" width="3.079178885630499" height="3.079178885630499" as="geometry" />
        </mxCell>
        <mxCell id="gNZy8tcKWQFt4iCztj_j-343" value="" style="ellipse;whiteSpace=wrap;html=1;aspect=fixed;" vertex="1" parent="gNZy8tcKWQFt4iCztj_j-337">
          <mxGeometry x="20.52785923753666" width="3.079178885630499" height="3.079178885630499" as="geometry" />
        </mxCell>
        <mxCell id="gNZy8tcKWQFt4iCztj_j-344" value="" style="ellipse;whiteSpace=wrap;html=1;aspect=fixed;" vertex="1" parent="gNZy8tcKWQFt4iCztj_j-337">
          <mxGeometry x="24.63343108504399" width="3.079178885630499" height="3.079178885630499" as="geometry" />
        </mxCell>
        <mxCell id="gNZy8tcKWQFt4iCztj_j-345" value="" style="ellipse;whiteSpace=wrap;html=1;aspect=fixed;" vertex="1" parent="gNZy8tcKWQFt4iCztj_j-337">
          <mxGeometry x="28.739002932551323" width="3.079178885630499" height="3.079178885630499" as="geometry" />
        </mxCell>
        <mxCell id="gNZy8tcKWQFt4iCztj_j-356" value="" style="endArrow=classic;html=1;rounded=0;exitX=0.5;exitY=1;exitDx=0;exitDy=0;entryX=0.5;entryY=0;entryDx=0;entryDy=0;" edge="1" parent="1" source="gNZy8tcKWQFt4iCztj_j-289" target="gNZy8tcKWQFt4iCztj_j-365">
          <mxGeometry width="50" height="50" relative="1" as="geometry">
            <mxPoint x="550.9072727272727" y="339.0909090909091" as="sourcePoint" />
            <mxPoint x="582.7254545454545" y="305" as="targetPoint" />
          </mxGeometry>
        </mxCell>
        <mxCell id="gNZy8tcKWQFt4iCztj_j-357" value="" style="endArrow=none;dashed=1;html=1;dashPattern=1 3;strokeWidth=2;rounded=0;entryX=0.5;entryY=1;entryDx=0;entryDy=0;exitX=0.5;exitY=0;exitDx=0;exitDy=0;" edge="1" parent="1" source="gNZy8tcKWQFt4iCztj_j-305" target="gNZy8tcKWQFt4iCztj_j-284">
          <mxGeometry width="50" height="50" relative="1" as="geometry">
            <mxPoint x="488.5436363636363" y="352.72727272727275" as="sourcePoint" />
            <mxPoint x="521.6345454545454" y="309.0909090909091" as="targetPoint" />
          </mxGeometry>
        </mxCell>
        <mxCell id="gNZy8tcKWQFt4iCztj_j-358" value="" style="ellipse;whiteSpace=wrap;html=1;aspect=fixed;" vertex="1" parent="1">
          <mxGeometry x="563.6390909090908" y="368.63545454545454" width="19.09090909090909" height="19.09090909090909" as="geometry" />
        </mxCell>
        <mxCell id="gNZy8tcKWQFt4iCztj_j-359" value="" style="ellipse;whiteSpace=wrap;html=1;aspect=fixed;" vertex="1" parent="1">
          <mxGeometry x="589.0936363636363" y="368.63545454545454" width="19.09090909090909" height="19.09090909090909" as="geometry" />
        </mxCell>
        <mxCell id="gNZy8tcKWQFt4iCztj_j-360" value="" style="ellipse;whiteSpace=wrap;html=1;aspect=fixed;" vertex="1" parent="1">
          <mxGeometry x="538.1845454545454" y="368.63545454545454" width="19.09090909090909" height="19.09090909090909" as="geometry" />
        </mxCell>
        <mxCell id="gNZy8tcKWQFt4iCztj_j-361" value="" style="ellipse;whiteSpace=wrap;html=1;aspect=fixed;" vertex="1" parent="1">
          <mxGeometry x="512.7299999999999" y="368.63545454545454" width="19.09090909090909" height="19.09090909090909" as="geometry" />
        </mxCell>
        <mxCell id="gNZy8tcKWQFt4iCztj_j-362" value="" style="ellipse;whiteSpace=wrap;html=1;aspect=fixed;" vertex="1" parent="1">
          <mxGeometry x="614.5481818181818" y="368.63545454545454" width="19.09090909090909" height="19.09090909090909" as="geometry" />
        </mxCell>
        <mxCell id="gNZy8tcKWQFt4iCztj_j-363" value="" style="ellipse;whiteSpace=wrap;html=1;aspect=fixed;" vertex="1" parent="1">
          <mxGeometry x="640.0027272727272" y="368.63545454545454" width="19.09090909090909" height="19.09090909090909" as="geometry" />
        </mxCell>
        <mxCell id="gNZy8tcKWQFt4iCztj_j-364" value="" style="ellipse;whiteSpace=wrap;html=1;aspect=fixed;" vertex="1" parent="1">
          <mxGeometry x="665.4572727272727" y="368.63545454545454" width="19.09090909090909" height="19.09090909090909" as="geometry" />
        </mxCell>
        <mxCell id="gNZy8tcKWQFt4iCztj_j-365" value="" style="ellipse;whiteSpace=wrap;html=1;aspect=fixed;fillColor=#f8cecc;strokeColor=#b85450;" vertex="1" parent="1">
          <mxGeometry x="690.9118181818181" y="368.63545454545454" width="19.09090909090909" height="19.09090909090909" as="geometry" />
        </mxCell>
        <mxCell id="gNZy8tcKWQFt4iCztj_j-366" value="" style="endArrow=none;dashed=1;html=1;dashPattern=1 3;strokeWidth=2;rounded=0;entryX=0.5;entryY=1;entryDx=0;entryDy=0;exitX=0.5;exitY=0;exitDx=0;exitDy=0;" edge="1" parent="1" source="gNZy8tcKWQFt4iCztj_j-314" target="gNZy8tcKWQFt4iCztj_j-281">
          <mxGeometry width="50" height="50" relative="1" as="geometry">
            <mxPoint x="530.5436363636363" y="352.72727272727275" as="sourcePoint" />
            <mxPoint x="554.0890909090908" y="311.8181818181818" as="targetPoint" />
          </mxGeometry>
        </mxCell>
        <mxCell id="gNZy8tcKWQFt4iCztj_j-367" value="" style="endArrow=none;dashed=1;html=1;dashPattern=1 3;strokeWidth=2;rounded=0;entryX=0.5;entryY=1;entryDx=0;entryDy=0;exitX=0.5;exitY=0;exitDx=0;exitDy=0;" edge="1" parent="1" source="gNZy8tcKWQFt4iCztj_j-320" target="gNZy8tcKWQFt4iCztj_j-283">
          <mxGeometry width="50" height="50" relative="1" as="geometry">
            <mxPoint x="536.9072727272727" y="359.54545454545456" as="sourcePoint" />
            <mxPoint x="560.4527272727272" y="318.6363636363636" as="targetPoint" />
          </mxGeometry>
        </mxCell>
        <mxCell id="gNZy8tcKWQFt4iCztj_j-368" value="" style="endArrow=none;dashed=1;html=1;dashPattern=1 3;strokeWidth=2;rounded=0;entryX=0.5;entryY=1;entryDx=0;entryDy=0;exitX=0.5;exitY=0;exitDx=0;exitDy=0;" edge="1" parent="1" source="gNZy8tcKWQFt4iCztj_j-333" target="gNZy8tcKWQFt4iCztj_j-287">
          <mxGeometry width="50" height="50" relative="1" as="geometry">
            <mxPoint x="543.2709090909091" y="366.3636363636364" as="sourcePoint" />
            <mxPoint x="566.8163636363636" y="325.45454545454544" as="targetPoint" />
          </mxGeometry>
        </mxCell>
        <mxCell id="gNZy8tcKWQFt4iCztj_j-369" value="" style="endArrow=none;dashed=1;html=1;dashPattern=1 3;strokeWidth=2;rounded=0;entryX=0.5;entryY=1;entryDx=0;entryDy=0;exitX=0.5;exitY=0;exitDx=0;exitDy=0;" edge="1" parent="1" source="gNZy8tcKWQFt4iCztj_j-342" target="gNZy8tcKWQFt4iCztj_j-288">
          <mxGeometry width="50" height="50" relative="1" as="geometry">
            <mxPoint x="664.18" y="352.72727272727275" as="sourcePoint" />
            <mxPoint x="655.9072727272727" y="311.8181818181818" as="targetPoint" />
          </mxGeometry>
        </mxCell>
        <mxCell id="gNZy8tcKWQFt4iCztj_j-282" value="&lt;div style=&quot;line-height: 100%;&quot; align=&quot;center&quot;&gt;sim&lt;/div&gt;" style="text;html=1;align=center;verticalAlign=middle;whiteSpace=wrap;rounded=0;" vertex="1" parent="1">
          <mxGeometry x="575.4499999999999" y="230" width="90" height="20.45" as="geometry" />
        </mxCell>
        <mxCell id="gNZy8tcKWQFt4iCztj_j-355" value="" style="endArrow=classic;html=1;rounded=0;exitX=0.5;exitY=1;exitDx=0;exitDy=0;entryX=0;entryY=0;entryDx=0;entryDy=0;" edge="1" parent="1" source="gNZy8tcKWQFt4iCztj_j-282" target="gNZy8tcKWQFt4iCztj_j-289">
          <mxGeometry width="50" height="50" relative="1" as="geometry">
            <mxPoint x="550.9072727272727" y="339.0909090909091" as="sourcePoint" />
            <mxPoint x="582.7254545454545" y="305" as="targetPoint" />
          </mxGeometry>
        </mxCell>
        <mxCell id="gNZy8tcKWQFt4iCztj_j-373" value="" style="group" vertex="1" connectable="0" parent="1">
          <mxGeometry x="608.1754545454545" y="339.0890909090909" width="31.81818181818182" height="6.818181818181818" as="geometry" />
        </mxCell>
        <mxCell id="gNZy8tcKWQFt4iCztj_j-374" value="" style="ellipse;whiteSpace=wrap;html=1;aspect=fixed;" vertex="1" parent="gNZy8tcKWQFt4iCztj_j-373">
          <mxGeometry x="8.21114369501466" width="3.079178885630499" height="3.079178885630499" as="geometry" />
        </mxCell>
        <mxCell id="gNZy8tcKWQFt4iCztj_j-375" value="" style="ellipse;whiteSpace=wrap;html=1;aspect=fixed;" vertex="1" parent="gNZy8tcKWQFt4iCztj_j-373">
          <mxGeometry x="12.316715542521996" width="3.079178885630499" height="3.079178885630499" as="geometry" />
        </mxCell>
        <mxCell id="gNZy8tcKWQFt4iCztj_j-376" value="" style="ellipse;whiteSpace=wrap;html=1;aspect=fixed;" vertex="1" parent="gNZy8tcKWQFt4iCztj_j-373">
          <mxGeometry x="4.10557184750733" width="3.079178885630499" height="3.079178885630499" as="geometry" />
        </mxCell>
        <mxCell id="gNZy8tcKWQFt4iCztj_j-377" value="" style="ellipse;whiteSpace=wrap;html=1;aspect=fixed;" vertex="1" parent="gNZy8tcKWQFt4iCztj_j-373">
          <mxGeometry width="3.079178885630499" height="3.079178885630499" as="geometry" />
        </mxCell>
        <mxCell id="gNZy8tcKWQFt4iCztj_j-378" value="" style="ellipse;whiteSpace=wrap;html=1;aspect=fixed;" vertex="1" parent="gNZy8tcKWQFt4iCztj_j-373">
          <mxGeometry x="16.42228739002932" width="3.079178885630499" height="3.079178885630499" as="geometry" />
        </mxCell>
        <mxCell id="gNZy8tcKWQFt4iCztj_j-379" value="" style="ellipse;whiteSpace=wrap;html=1;aspect=fixed;" vertex="1" parent="gNZy8tcKWQFt4iCztj_j-373">
          <mxGeometry x="20.52785923753666" width="3.079178885630499" height="3.079178885630499" as="geometry" />
        </mxCell>
        <mxCell id="gNZy8tcKWQFt4iCztj_j-380" value="" style="ellipse;whiteSpace=wrap;html=1;aspect=fixed;" vertex="1" parent="gNZy8tcKWQFt4iCztj_j-373">
          <mxGeometry x="24.63343108504399" width="3.079178885630499" height="3.079178885630499" as="geometry" />
        </mxCell>
        <mxCell id="gNZy8tcKWQFt4iCztj_j-381" value="" style="ellipse;whiteSpace=wrap;html=1;aspect=fixed;" vertex="1" parent="gNZy8tcKWQFt4iCztj_j-373">
          <mxGeometry x="28.739002932551323" width="3.079178885630499" height="3.079178885630499" as="geometry" />
        </mxCell>
        <mxCell id="gNZy8tcKWQFt4iCztj_j-382" value="" style="endArrow=none;dashed=1;html=1;dashPattern=1 3;strokeWidth=2;rounded=0;entryX=0.5;entryY=1;entryDx=0;entryDy=0;exitX=1;exitY=0;exitDx=0;exitDy=0;" edge="1" parent="1" source="gNZy8tcKWQFt4iCztj_j-375" target="gNZy8tcKWQFt4iCztj_j-286">
          <mxGeometry width="50" height="50" relative="1" as="geometry">
            <mxPoint x="606.18" y="356" as="sourcePoint" />
            <mxPoint x="608.18" y="314" as="targetPoint" />
          </mxGeometry>
        </mxCell>
      </root>
    </mxGraphModel>
  </diagram>
</mxfile>
